<?xml version="1.0" encoding="utf-8"?>
<!-- Generator: Adobe Illustrator 17.0.0, SVG Export Plug-In . SVG Version: 6.00 Build 0)  -->
<!DOCTYPE svg PUBLIC "-//W3C//DTD SVG 1.1//EN" "http://www.w3.org/Graphics/SVG/1.1/DTD/svg11.dtd">
<svg version="1.1" id="Layer_1" xmlns="http://www.w3.org/2000/svg" xmlns:xlink="http://www.w3.org/1999/xlink" x="0px" y="0px"
	 width="247px" height="268px" viewBox="0 0 247 268" enable-background="new 0 0 247 268" xml:space="preserve">
<title>Logo</title>
<desc>Created with Sketch.</desc>
<g id="Home-page">
	<g id="Logo">
		<rect id="Rectangle_14" x="0" fill="#00A4E4" width="246" height="181"/>
		<path id="Path_10" fill="#FFFFFF" d="M46,137.792V42l62.82,52.66V42.866h40.369c25.69,0,51.811,20.154,51.811,50.493V138h-19.429
			v-32.278h-35.189V86.208h33.029c0,0-4.101-23.188-28.712-23.188h-22.45v74.772l-62.389-53.75v53.75H46z"/>
		<g id="Group_6" transform="translate(0.000000, 190.000000)">
			<rect id="Rectangle_15" x="0" y="0" fill="#807F83" width="246.024" height="77.019"/>
			<g id="Group_5" transform="translate(25.704605, 19.255211)">
				<polygon id="Path_11" fill="#FFFFFF" points="15.337,32.236 5.185,10.823 5.185,10.823 5.185,32.028 0,32.028 0,6.49 
					8.207,6.49 18.143,26.611 18.143,26.611 18.143,6.49 23.332,6.49 23.332,32.236 				"/>
				<path id="Path_12" fill="#FFFFFF" d="M26.784,19.255c0-7.572,3.888-13.413,12.529-13.413s12.529,5.842,12.529,13.413
					S47.955,32.66,39.312,32.66S26.784,26.827,26.784,19.255z M32.832,19.255c0,4.326,1.079,9.303,6.48,9.303s6.48-4.975,6.48-9.303
					s-1.079-9.303-6.48-9.303S32.832,14.929,32.832,19.255L32.832,19.255z"/>
				<path id="Path_13" fill="#FFFFFF" d="M60.914,32.236h-5.617V6.49h11.015c4.535,0,9.073,1.513,9.073,6.707
					c0.026,3.151-2.282,5.833-5.397,6.274l0,0c4.319,0.432,4.319,3.029,4.751,6.707c0.039,2.108,0.556,4.179,1.511,6.058H70.2
					c-0.432-2.38-0.648-4.542-0.863-6.923c-0.208-1.513-0.432-3.461-2.377-3.461h-5.83v10.395L60.914,32.236z M60.914,17.526h4.761
					c0.991,0.138,1.993-0.166,2.741-0.832c0.748-0.666,1.167-1.627,1.147-2.629c0-2.164-1.511-3.245-3.888-3.245h-4.761V17.526z"/>
				<path id="Path_14" fill="#FFFFFF" d="M80.352,6.49h8.857c7.991,0,12.96,3.894,12.96,12.765s-4.967,12.981-12.96,12.765h-8.857
					V20.987h-2.808v-4.326h2.808V6.49z M85.968,16.659h4.535v4.326h-4.535v6.923h2.808c6.48,0,7.559-4.542,7.559-8.655
					s-0.863-8.655-7.559-8.655h-2.808V16.659z"/>
				<path id="Path_15" fill="#FFFFFF" d="M127.873,6.49v16.008c0,6.923-4.969,10.168-11.231,10.168s-11.233-3.243-11.233-10.168
					V6.49h5.617v13.846c0,4.326,0.208,8.22,5.617,8.22c5.409,0,5.617-3.894,5.617-8.22V6.49H127.873z"/>
				<path id="Path_16" fill="#FFFFFF" d="M137.809,32.236h-5.617V6.49h11.015c4.535,0,9.073,1.513,9.073,6.707
					c0.026,3.151-2.282,5.833-5.397,6.274l0,0c4.319,0.432,4.319,3.029,4.751,6.707c0.039,2.108,0.556,4.179,1.511,6.058h-6.05
					c-0.432-2.38-0.648-4.542-0.863-6.923c-0.208-1.513-0.432-3.461-2.377-3.461h-5.83v10.395L137.809,32.236z M137.809,17.526
					h4.761c0.991,0.138,1.993-0.166,2.741-0.832c0.748-0.666,1.167-1.627,1.147-2.629c0-2.164-1.511-3.245-3.888-3.245h-4.761
					V17.526z"/>
				<path id="Path_17" fill="#FFFFFF" d="M153.576,32.236l9.288-25.746h6.486l9.073,25.746h-5.397l-1.945-5.405h-10.162
					l-1.945,5.405H153.576z M169.766,22.5l-3.456-11.033l0,0L162.422,22.5H169.766z M171.719,0L167.4,4.759h-2.808L166.968,0
					H171.719z"/>
				<polygon id="Path_18" fill="#FFFFFF" points="180.792,32.236 180.792,6.49 186.408,6.49 186.408,27.904 197.639,27.904 
					197.639,32.23 				"/>
			</g>
		</g>
	</g>
</g>
</svg>
