<svg id="Layer_1" data-name="Layer 1" xmlns="http://www.w3.org/2000/svg" viewBox="0 0 499.98 566.93"><defs><style>.cls-1{fill:#224397;}.cls-1,.cls-2,.cls-3,.cls-4{fill-rule:evenodd;}.cls-2,.cls-6{fill:#fff;}.cls-3{fill:#149f4b;}.cls-4,.cls-5{fill:#e91e2c;}</style></defs><title>afturelding</title><path class="cls-1" d="M8.88-8.1H180.6c24.46,0,49.72-2.42,69.07-24.73C268.41-10.52,295.61-8.1,325.14-8.1H490.39l9.24,40.78c-7.1-5.2-14.28-9.74-22.38-8.57-8.49,1.22-16.14,5-16.14,25.69V304.53c0,.82-1.22,1.66-1.23,2.52-.14,35.78-2.5,102.31-44.42,134.73-30.43,23.53-61.27,25.28-109.53,43.61-28.75,10.93-45.69,26.88-56.26,45.86C243.75,521.6,229.48,500,201,488.07c-35.42-14.81-93.47-23.91-121-48.62C44.5,407.55,39.46,351.5,39.25,307.66c0-1.05-1-2.1-1-3.13V48.25c0-13.13-4.31-21.83-13.58-23.76-11.25-2.33-17.59,3-25,8.13L8.88-8.1Z" transform="translate(0.35 32.83)"/><path class="cls-2" d="M249.64,152.72c58.37,0,117.12,25.89,148.12,77A139.09,139.09,0,0,1,418,302.38c0,90.25-79.93,160.07-168.33,160.07S81.31,392.63,81.31,302.38a139.23,139.23,0,0,1,20.2-72.7c31-51.07,89.75-77,148.13-77Z" transform="translate(0.35 32.83)"/><path class="cls-3" d="M461.08,304.85c0,35.2-1.63,105.06-44.43,138.15-30.44,23.54-62.29,25.68-110.55,44-28.75,10.93-45.89,28.1-56.46,47.08-5.92-9.65-20.19-31.88-48.68-43.79-35.43-14.82-94.7-25.34-122.2-50.05C42.49,407.69,38.22,349.08,38.2,304.89h0c0-58.77,30.11-108.53,77.3-140.76,8.13-4.53,9-5.42,15.94-7.31,15.54-4.2,27.53,5.78,30.39,11.6,9.66,19.66,2.77,27-9.11,36.47-30.64,23-50,57.28-50,97.5,0,74.19,65.79,138.64,146.91,138.64s146.9-64.45,146.9-138.64c0-37.09-16.44-69.14-43-91.92-24.69-17.75-23.65-27-15.89-41,5.18-9.4,22.05-25.26,54.12.41,42.58,32.25,69.32,79.63,69.33,135Z" transform="translate(0.35 32.83)"/><path class="cls-1" d="M249.64,121c48.78,0,88.35,18.87,88.35,42.14s-39.57,42.13-88.35,42.13-88.35-18.87-88.35-42.13S200.85,121,249.64,121Z" transform="translate(0.35 32.83)"/><path class="cls-2" d="M249.64,124.57c46.81,0,84.77,17.27,84.77,38.56s-38,38.56-84.77,38.56-84.78-17.27-84.78-38.56,38-38.56,84.78-38.56Z" transform="translate(0.35 32.83)"/><path class="cls-2" d="M231.26,453.85l10.2,8v.12a232.83,232.83,0,0,1-30.31-5.06c-5-1.15.22-5.89,0-10-.14-2.69-1.56-4.27-3.15-5.72-3.18-2.91-11.13-3.52-14.5-2.88,1.68,1.74,1.21,7.27,5.67,10,2.18,1.33,6.24,1.9,6.72,3s.22,2.76.15,4.38c-6.52-1.64-13-3.52-19.31-5.58-4.6-1.51-1.71-7-1.53-10.85.15-3.18-.76-6.15-2.93-7.86-2.73-2.14-7-3.67-10.67-4.56-.46,2.35-.69,9.27,2.91,13,.88.92,4.6,2,6.26,3.76,1,1,.5,3,.61,4.66-7.87-2.75-15.39-5.78-22.24-9-3.18-1.49-2.76-3.62-.32-6.19,2.1-2.22,6.12-6.47,1-11.66-2.2-2.23-6.38-7-11.48-12.43-3.38,6.3-3.06,11.94-.34,16.13,1.84,2.83,4.83,4.19,6,7,.76,1.8.1,3.09-.44,4.41a167.75,167.75,0,0,1-23.21-14.08c-2.91-2.13-3.09-3.2-.61-6.44,3-3.87,6.31-7.86,6.47-11.8.17-4.32-3.71-7-8-11a70.66,70.66,0,0,1-8.39-10.19c-2.3,5.68-4.73,10.9-3.22,16.42s7.87,9.35,9.65,13c.87,1.82-.44,3.82-1.41,5.71a118.55,118.55,0,0,1-23.22-24.92c-1.82-2.64-1.68-5.11.26-7.89,3.21-4.57,9.46-9.27,9.67-14.17.33-7.8-7.76-9.26-8.73-21.64-5.06,5.51-7.29,12.19-6.26,18.85.7,4.5,3,7.51,3,11.22,0,1.92-1.2,5-2.26,6.9a136.77,136.77,0,0,1-13.57-32.12c-1-3.47-1.28-5.87,2.52-8,5.76-3.24,10.68-6.58,11.35-11.27s-1-5.84-2.1-9.69c-.69-2.3-2.19-5.62-1.88-11.34-4.24,3-9.36,7.25-10.42,12.74s2.58,8.65,2.3,12.74c-.18,2.59-2.41,4.15-4.23,5.34a284.57,284.57,0,0,1-5.87-39c-.24-2.24-.31-4.37,3.51-5,6.1-.83,13.89-1.74,16.85-6.63a12.91,12.91,0,0,0,2-5.86c.42-3.85-.91-8.09.92-12.56-6.24,1.63-9,3.27-12.76,7-3.43,3.42-2.23,8.31-6.34,12A21.94,21.94,0,0,1,74.79,298a116.47,116.47,0,0,1,1.76-26.61c.75-4.19,2.11-4,4.73-4.42,9.2-1.39,16.86-4.8,22.39-9.24,5.23-4.22,8.27-9.92,10.31-15.34-5.41,3.17-12.24.82-16.22,2.91-7.85,4.13-3.39,15.77-19.43,17.75,3.07-12.22,9.18-24.86,17-36.26,1-1.6,2.29-3.09,4.56-2.13,6.1,2,13.64,3.83,18.87,3,7-1.17,12.11-11,17.47-14.43a28.57,28.57,0,0,0-15.93-1.27c-5.15,1.34-6.79,6.23-10.64,8.62a10,10,0,0,1-6.55,1.37l-3.63-.85a126.58,126.58,0,0,1,15.74-17.21,39.53,39.53,0,0,1,15.73-9.09c3.06-.89,3.64-.45,6.58.38a23.4,23.4,0,0,0,9.74.62c4.34-.68,6.1-3.89,13.93-5-4.33-7.39-10.44-9.47-15-9.48-4.77,0-8,3.24-10.95,6.22a9.85,9.85,0,0,1-5.56,3.33,43.69,43.69,0,0,0-8,3.17c-.14-4.26,3.22-7,5-9.57,1.6-2.33,1.43-5.84,2.46-8.72,1.61-4.51,10.57-7.2,8.82-11.85-8.15,1.53-18,6.25-21.1,13.14a9.75,9.75,0,0,0-.24,8.27c3.89,8.24,2.88,9.13-3,14.28A133.91,133.91,0,0,0,90,227.07a40.67,40.67,0,0,1-1.25-5.78c-.21-1.52,1.19-3.86,4.17-7.48,4.48-5.44,3.69-11.54,2.25-23.69-4.69,9.57-11.81,12.2-15,19.26-1.68,3.74-1.57,6.75.31,9.78A57.45,57.45,0,0,0,84.6,224c4.16,5,2.39,7.66-.19,12.42A111.06,111.06,0,0,0,74,262.52a131.62,131.62,0,0,0-2.76,15.08c-3.79-3.91-4.91-5.19-5.74-10.48-1.62-10.31,6.12-16.81-9.22-29.63-.66,5.63-.25,11.89-2.27,16.74-2.17,5.19-3,8.65.74,12.77,4.65,5.08,7.53,5.78,11.44,9.67,4.34,4.32,4.4,5.81,4.2,11.51a112.07,112.07,0,0,0,.24,12.57c.47,6.05,1,11.92,1.72,17.63-5-2.06-7.81-2-8.43-6.29s-1.15-8.62-2.22-11c-2.37-5.31-7-7.09-15.82-9.45,4.59,10.9-1.54,18.89,5.66,24.91,4.32,3.62,11.27,1.77,14.21,2.91,5.27,2,7.1,3.26,7.92,8.62a206.93,206.93,0,0,0,8.08,34.56c-5.31-1.28-9-3.61-11.34-7-5.73-8.45-2.35-11.85-21.78-19.34,3,7.34.46,17.73,6.42,22.93,6.45,5.61,15,2.58,25.18,7.55,3.46,1.7,4,2.65,5.55,6,4.05,8.83,8.1,17.09,13.54,24.8-3,0-6,1-9.27.21-7.17-1.67-8-4.7-9.54-7.8-2-4-5.9-8.07-23.39-9.54,3.62,4.41,3.54,9.64,6.22,14.17,2.37,4,5.34,7.46,9.25,9.31,5.85,2.78,14.14,1.21,19-.51a16.57,16.57,0,0,1,2.41-.68c3.52-.72,8-1.47,10.6,1.63a127.37,127.37,0,0,0,21.27,20.15c-4.51.54-6.36,1-9,.47-8-1.56-10.54-5.68-17-6.2-7.74-.63-10.54,5.13-21.48,2.33,3.88,2.59,5.36,6.94,9.18,10.23a22,22,0,0,0,10.44,4.47c13.71,1.08,15.1-4.82,23.64-7.34,4.34-1.27,7.79-1.25,11.42,1.17a178.78,178.78,0,0,0,19.09,11,12.6,12.6,0,0,1-6.61.41c-3-.47-9.94-2.42-13.11-1.93-5.29.82-7.29,4.44-11.89,6.44A13.44,13.44,0,0,1,112.3,447c4.6,3.94,14.36,8.62,21.14,7.83a21.62,21.62,0,0,0,9.95-3.66c2.79-1.79,4.37-4.9,6.84-6.56,3.1-2.09,4.22-2.82,7.48-1.31a251,251,0,0,0,26,10.25c-1.15,1.12-2.82,1.71-5.44,1.54-3.52-.22-5.87-1.9-10.85-1.8-8.83.19-14.86,8.49-19.45,9.06,4.27,2.39,9.26,3.56,15.17,4.56a24.81,24.81,0,0,0,8.65-.43c5.32-1.15,7.5-5.72,11.14-9,2.57-2.33,4-2.86,7.06-1.9,8.22,2.53,16.67,4.75,25.05,6.52-.06.19,0,.08-.77.71-3.23,2.79-10,1.31-14.45,1.16-4.73-.17-11.46,1.21-14.63,5.75,3.86.38,8.82,5.16,14.53,5.9,3.8.49,7.69-.27,9.87-2,2.73-2.2,3.42-5.48,5.6-8.31s3-2.5,6.12-1.92c6.75,1.26,13.4,2.21,19.79,2.81l-.07.91-19.17,18.76,13.87,10.19,14.07-27.73,13.46,28.14,16.31-11.42-20.24-19c6-.6,12.3-1.52,18.65-2.7,3.07-.58,4-.84,6.12,1.92s2.87,6.11,5.61,8.31c2.18,1.76,6.06,2.52,9.87,2,5.7-.74,10.66-5.52,14.53-5.9-3.17-4.54-9.91-5.92-14.64-5.75-4.44.15-11.22,1.63-14.44-1.16-.74-.63-.72-.52-.78-.71,8.38-1.77,16.84-4,25.06-6.52,3.11-1,4.48-.43,7.06,1.9,3.64,3.29,5.82,7.86,11.13,9a24.81,24.81,0,0,0,8.65.43c5.91-1,10.9-2.17,15.18-4.56-4.6-.57-10.63-8.87-19.46-9.06-5-.1-7.32,1.58-10.85,1.8-2.62.17-4.28-.42-5.43-1.54a250.83,250.83,0,0,0,26-10.25c3.27-1.51,4.39-.78,7.49,1.31,2.46,1.66,4,4.77,6.83,6.56a21.62,21.62,0,0,0,10,3.66c6.78.79,16.54-3.89,21.13-7.83a13.44,13.44,0,0,1-8.31-1.44c-4.59-2-6.6-5.62-11.88-6.44-3.18-.49-10.09,1.46-13.11,1.93a12.6,12.6,0,0,1-6.61-.41,179.77,179.77,0,0,0,19.09-11c3.63-2.42,7.08-2.44,11.41-1.17,8.55,2.52,9.93,8.42,23.64,7.34a22,22,0,0,0,10.44-4.47c3.82-3.29,5.3-7.64,9.18-10.23-10.94,2.8-13.73-3-21.48-2.33-6.45.52-9,4.64-17,6.2-2.6.51-4.46.07-9-.47a127.84,127.84,0,0,0,21.28-20.15c2.58-3.1,7.07-2.35,10.59-1.63a16.69,16.69,0,0,1,2.42.68c4.83,1.72,13.12,3.29,19,.51,3.91-1.85,6.88-5.31,9.25-9.31,2.69-4.53,2.6-9.76,6.22-14.17-17.49,1.47-21.36,5.56-23.39,9.54-1.57,3.1-2.37,6.13-9.54,7.8-3.24.76-6.21-.17-9.27-.21,5.45-7.71,9.5-16,13.55-24.8,1.56-3.4,2.08-4.35,5.54-6,10.15-5,18.74-1.94,25.18-7.55,6-5.2,3.47-15.59,6.42-22.93-19.43,7.49-16.05,10.89-21.77,19.34-2.32,3.42-6,5.75-11.35,7a206.93,206.93,0,0,0,8.09-34.56c.82-5.36,2.64-6.59,7.91-8.62,2.95-1.14,9.89.71,14.22-2.91,7.19-6,1.07-14,5.65-24.91-8.78,2.36-13.44,4.14-15.81,9.45-1.08,2.41-1.62,6.86-2.22,11s-3.46,4.23-8.43,6.29q1-8.56,1.71-17.63a112.07,112.07,0,0,0,.24-12.57c-.2-5.7-.14-7.19,4.21-11.51,3.9-3.89,6.79-4.59,11.44-9.67,3.77-4.12,2.91-7.58.74-12.77-2-4.85-1.61-11.11-2.27-16.74-15.34,12.82-7.61,19.32-9.23,29.63-.83,5.29-2,6.57-5.73,10.48a131.64,131.64,0,0,0-2.77-15.08,111,111,0,0,0-10.36-26.12c-2.59-4.76-4.35-7.42-.2-12.42a55.88,55.88,0,0,0,4.14-4.82c1.87-3,2-6,.3-9.78-3.16-7.06-10.29-9.69-15-19.26-1.45,12.15-2.24,18.25,2.24,23.69,3,3.62,4.39,6,4.17,7.48a40.55,40.55,0,0,1-1.24,5.78,134.26,134.26,0,0,0-23.63-27.55c-5.89-5.15-6.9-6-3-14.28a9.76,9.76,0,0,0-.25-8.27c-3.11-6.89-12.94-11.61-21.09-13.14-1.76,4.65,7.2,7.34,8.82,11.85,1,2.88.86,6.39,2.45,8.72,1.73,2.53,5.09,5.31,4.95,9.57a43.89,43.89,0,0,0-8-3.17,9.88,9.88,0,0,1-5.57-3.33c-2.93-3-6.17-6.23-10.95-6.22-4.53,0-10.65,2.09-15,9.48,7.83,1.13,9.59,4.34,13.92,5a23.39,23.39,0,0,0,9.74-.62c2.95-.83,3.53-1.27,6.58-.38a39.5,39.5,0,0,1,15.74,9.09,125.88,125.88,0,0,1,15.73,17.21l-3.62.85a10.06,10.06,0,0,1-6.56-1.37c-3.84-2.39-5.48-7.28-10.63-8.62a28.56,28.56,0,0,0-15.93,1.27c5.36,3.48,10.49,13.26,17.46,14.43,5.23.88,12.78-1,18.87-3,2.28-1,3.55.53,4.56,2.13,7.79,11.4,13.9,24,17,36.26-16-2-11.57-13.62-19.42-17.75-4-2.09-10.82.26-16.22-2.91,2,5.42,5.07,11.12,10.31,15.34,5.52,4.44,13.18,7.85,22.39,9.24,2.62.4,4,.23,4.73,4.42A117,117,0,0,1,424.55,298a22.06,22.06,0,0,1-4.79-3.05c-4.11-3.66-2.9-8.55-6.33-12-3.79-3.77-6.52-5.41-12.77-7,1.83,4.47.51,8.71.93,12.56a12.8,12.8,0,0,0,2,5.86c2.95,4.89,10.74,5.8,16.84,6.63,3.82.61,3.75,2.74,3.51,5a286.16,286.16,0,0,1-5.86,39c-1.83-1.19-4.05-2.75-4.23-5.34-.28-4.09,3.32-7.4,2.29-12.74s-6.17-9.77-10.41-12.74c.31,5.72-1.2,9-1.88,11.34-1.14,3.85-2.76,5-2.1,9.69s5.58,8,11.34,11.27c3.81,2.13,3.49,4.53,2.53,8A136.38,136.38,0,0,1,402,386.57c-1-1.9-2.25-5-2.25-6.9,0-3.71,2.31-6.72,3-11.22,1-6.66-1.2-13.34-6.25-18.85-1,12.38-9.06,13.84-8.73,21.64.21,4.9,6.46,9.6,9.66,14.17,2,2.78,2.08,5.25.26,7.89a118.76,118.76,0,0,1-23.21,24.92c-1-1.89-2.29-3.89-1.41-5.71,1.77-3.69,8.16-7.6,9.64-13s-.92-10.74-3.21-16.42a71.38,71.38,0,0,1-8.4,10.19c-4.29,4-8.17,6.67-8,11,.16,3.94,3.52,7.93,6.47,11.8,2.48,3.24,2.29,4.31-.62,6.44a167,167,0,0,1-23.2,14.08c-.55-1.32-1.21-2.61-.45-4.41,1.2-2.83,4.2-4.19,6-7,2.71-4.19,3-9.83-.34-16.13-5.11,5.42-9.28,10.2-11.49,12.43-5.14,5.19-1.11,9.44,1,11.66,2.44,2.57,2.87,4.7-.32,6.19a238.83,238.83,0,0,1-22.24,9c.12-1.62-.38-3.64.61-4.66,1.67-1.72,5.39-2.84,6.27-3.76,3.6-3.77,3.37-10.69,2.91-13-3.68.89-7.95,2.42-10.67,4.56-2.18,1.71-3.08,4.68-2.94,7.86.18,3.86,3.08,9.34-1.52,10.85-6.31,2.06-12.8,3.94-19.31,5.58-.08-1.62-.3-3.37.14-4.38s4.54-1.66,6.73-3c4.45-2.71,4-8.24,5.67-10-3.38-.64-11.32,0-14.5,2.88-1.59,1.45-3,3-3.16,5.72-.22,4.09,5,8.83,0,10a234.53,234.53,0,0,1-28.74,4.9l9.32-7.71-9-6.93L250,457.73l-11.42-10.2-7.34,6.32Z" transform="translate(0.35 32.83)"/><path class="cls-4" d="M168.29,199.64A135.2,135.2,0,0,0,155.62,208l54.24,62.78a74.29,74.29,0,0,0-14.37,11.89l-72.92-38.1a114.77,114.77,0,0,0-6.9,13.87l73.84,31.44a75.27,75.27,0,0,0-6,9.75H107.05c0,.91,0,1.83,0,2.75,0,1.95,0,3.88.14,5.82h285c.09-1.94.14-3.87.14-5.82,0-.92,0-1.84,0-2.75H315.84a73.3,73.3,0,0,0-6.37-10.24l73.92-31.48a114.18,114.18,0,0,0-7-13.92l-73,38.15a74.32,74.32,0,0,0-13.75-11.29l54.21-62.74a138.37,138.37,0,0,0-12.65-8.37l-49.44,66.73a73.46,73.46,0,0,0-15.54-5.4l15.39-57.21-13.78,2.38L257,259.58q-3.6-.34-7.29-.35c-2.47,0-4.92.12-7.33.36l-10.81-53.28-13.62-1.8,15.22,56.57a74,74,0,0,0-15.38,5.33l-49.46-66.77Z" transform="translate(0.35 32.83)"/><path class="cls-1" d="M107.67,314.93a121.86,121.86,0,0,0,8.7,34.43c21.85,53.37,76.09,87.38,133.27,87.38s111.42-34,133.27-87.39a121.71,121.71,0,0,0,8.7-34.42h-73c-5,0-17.4.16-26.55,8.31a3.14,3.14,0,0,0,.84,5.33c2.54,1.24,8.79,1.07,12.57,1.11,4,0,4.56,5.08,1,5.17-9.25.26-14.15.71-18.93,1.65-7,1.38-11.79,3.47-13.73,4.67-8.82,5.48-3.37,9.31.88,9,3.16-.22,7.69-.59,10.77-.06a16.73,16.73,0,0,1,7.63,3.2c5.37,4.46,2.54,7.37-2.56,7.56-4.88.19-8.74-.25-12.55.25A25.8,25.8,0,0,0,267,365a2.91,2.91,0,0,0,.11,4.92c3.32,2.05,11,3.16,13.24,4.86,4.13,3.21,1.44,3.8-3,3.56-.49,0-3.65-.15-5.9-.41-3.75-.44-8.4-.07-8.75.78-.6,1.46,11.81,3.81,12.12,5.82.42,2.63-17-.23-17.86,2.07-.34.94,1.85,2.22,4.63,3.05a42.8,42.8,0,0,1,6.17,2.32c1.13.57,1.94,2.73.52,3.18-2.73.84-6.88,1.09-12.31.33-5-.7-9.93-2.16-13.2-4.41-1.38-1-7.19-4.84,3-5.77,3.93-.36-.32-3.91-3.57-4.41-1.87-.29-10.9-.88-13.06-.87-4.45,0-3.4-3.75-1.37-5a14.47,14.47,0,0,1,6.16-2.14c4.05-.62,5-3.41-2.12-6.89-2.84-1.39-11.73-2.67-13.85-2.9-10.77-1.16-9.49-8.14-6-8.12,9.8.05,13.92-2,14.7-3.78,1-2.27-3.51-4.59-8.54-6.65-3.45-1.41-12.32-1.61-19-2.15-3.5-.28-7.12-.76-8.38-1.28-6-2.44-9.58-8.23-1.17-6.89,5.29.84,14.3.36,18.08,0,2.8-.28,5.67-1,6.56-2.06,1.49-1.79.14-4.17-3-5.41a57.44,57.44,0,0,0-14.7-3.64c-5.4-.59-11.06-.34-15.14-.57-5.39-.3-.81-4.91,2.76-5.11,6.07-.33,9.86.05,13-.24,2.19-.2,3.91-2.2-1.37-2.2Z" transform="translate(0.35 32.83)"/><path class="cls-5" d="M219.79,179.85H224a25.15,25.15,0,0,0-1.33-2.81c-.36-.63-.65-.95-.85-.95s-.43.26-.71.78-.71,1.51-1.3,3Zm-8.15,6.64c0-.61.42-1.06,1.23-1.33l.34-.12q.85-.33,2.45-4.07c.34-.82.62-1.46.82-1.93s.45-1,.8-1.82a37.68,37.68,0,0,0,2.61-7,2,2,0,0,1,.67-1.34,2.79,2.79,0,0,1,1.59-.35,5.24,5.24,0,0,1,2.06.34,3.82,3.82,0,0,1,1.47,1.11,15.39,15.39,0,0,1,1.74,2.79q1,1.92,2.75,5.91c.3.67.68,1.56,1.13,2.68a11,11,0,0,0,1.81,3.44,3.58,3.58,0,0,0,.42.18c.79.28,1.18.7,1.18,1.25s-.43,1.19-1.3,1.51a13.23,13.23,0,0,1-4.19.47,17.87,17.87,0,0,1-4.53-.38c-.84-.26-1.27-.7-1.27-1.32a1.25,1.25,0,0,1,.21-.72,1.33,1.33,0,0,1,.6-.46,2.23,2.23,0,0,0,.71-.38.61.61,0,0,0,.17-.43c0-.38-.32-.66-.94-.83a13.83,13.83,0,0,0-3.09-.25,7.53,7.53,0,0,0-2.35.25.87.87,0,0,0-.62.86.65.65,0,0,0,.18.5,1.58,1.58,0,0,0,.75.3,1,1,0,0,1,.6.38,1.24,1.24,0,0,1,.23.75,1.4,1.4,0,0,1-1,1.33,8.71,8.71,0,0,1-3.19.43,7.86,7.86,0,0,1-3-.43,1.37,1.37,0,0,1-1-1.28Z" transform="translate(0.35 32.83)"/><path class="cls-5" d="M246.12,188H237a1.52,1.52,0,0,1-1.66-1.66,1.61,1.61,0,0,1,.93-1.34,4,4,0,0,0,.57-.44,2.51,2.51,0,0,0,.51-1.27,27.74,27.74,0,0,0,.15-3.69v-3.4a27.3,27.3,0,0,0-.1-2.95,1.58,1.58,0,0,0-.33-1,2.37,2.37,0,0,0-.52-.22c-.77-.24-1.16-.69-1.16-1.33s.5-1.14,1.47-1.49a13,13,0,0,1,4.18-.53,12.83,12.83,0,0,1,4,.48c.91.31,1.36.78,1.36,1.41a1.47,1.47,0,0,1-1,1.33c-.2.09-.36.16-.46.22a1.47,1.47,0,0,0-.46.4,1.29,1.29,0,0,0-.17.58c0,.42-.07,1-.09,1.84s0,1.94,0,3.4v3.76a3.76,3.76,0,0,0,.36,2.13,2.13,2.13,0,0,0,1.54.4,4.7,4.7,0,0,0,2.19-.4,2.47,2.47,0,0,0,1.12-1.35c0-.11.09-.27.16-.49.28-.78.66-1.17,1.15-1.17a1.65,1.65,0,0,1,1.29.6,2.36,2.36,0,0,1,.52,1.55,7,7,0,0,1-.4,2,8,8,0,0,1-.94,2,2.68,2.68,0,0,1-.74.73,1.63,1.63,0,0,1-.84.24l-.27,0a14.31,14.31,0,0,0-3.14-.32Z" transform="translate(0.35 32.83)"/><path class="cls-5" d="M264,188h-9.17a1.54,1.54,0,0,1-1.66-1.66,1.61,1.61,0,0,1,.93-1.34,4.93,4.93,0,0,0,.58-.44,2.6,2.6,0,0,0,.5-1.27,27.74,27.74,0,0,0,.15-3.69v-3.4a27.3,27.3,0,0,0-.1-2.95,1.58,1.58,0,0,0-.33-1,2.16,2.16,0,0,0-.52-.22c-.77-.24-1.15-.69-1.15-1.33s.49-1.14,1.46-1.49a13,13,0,0,1,4.18-.53,12.83,12.83,0,0,1,4,.48c.91.31,1.36.78,1.36,1.41a1.47,1.47,0,0,1-1.05,1.33,4.81,4.81,0,0,0-.45.22,1.41,1.41,0,0,0-.47.4,1.18,1.18,0,0,0-.16.58c0,.42-.08,1-.1,1.84s0,1.94,0,3.4v3.76a3.65,3.65,0,0,0,.37,2.13,2.08,2.08,0,0,0,1.53.4,4.67,4.67,0,0,0,2.19-.4,2.47,2.47,0,0,0,1.12-1.35c0-.11.1-.27.17-.49q.4-1.17,1.14-1.17a1.65,1.65,0,0,1,1.29.6,2.36,2.36,0,0,1,.52,1.55,6.66,6.66,0,0,1-.4,2,7.61,7.61,0,0,1-.94,2,2.68,2.68,0,0,1-.74.73,1.59,1.59,0,0,1-.83.24l-.28,0A14.31,14.31,0,0,0,264,188Z" transform="translate(0.35 32.83)"/><path class="cls-5" d="M282.79,168.94a3.22,3.22,0,0,0,.76-.2,3.15,3.15,0,0,1,1-.19,2.79,2.79,0,0,1,2.19,1.57,6.05,6.05,0,0,1,1,3.29,2.73,2.73,0,0,1-.54,1.81,1.91,1.91,0,0,1-1.54.63,2.06,2.06,0,0,1-1.13-.32,2.92,2.92,0,0,1-.94-1,9.24,9.24,0,0,1-.5-.85c-.35-.66-.68-1-1-1a.52.52,0,0,0-.49.27,1.53,1.53,0,0,0-.17.81s0,.12,0,.32,0,.39,0,.58c0,.67,0,1.79-.07,3.39s-.08,2.84-.08,3.76a6.61,6.61,0,0,0,.2,2,1.59,1.59,0,0,0,.76.86l.36.15a1.35,1.35,0,0,1,1,1.26c0,.74-.47,1.28-1.41,1.61a15.34,15.34,0,0,1-4.6.49,11.78,11.78,0,0,1-4-.54c-.95-.36-1.42-.87-1.42-1.52s.37-1,1.13-1.32a4,4,0,0,0,.51-.23c.39-.23.68-.93.84-2.11a43.93,43.93,0,0,0,.25-5.59v-1.2a9.86,9.86,0,0,0-.17-2.34.61.61,0,0,0-.6-.52c-.32,0-.69.33-1.13,1l-.31.46a6.06,6.06,0,0,1-1.23,1.35,1.82,1.82,0,0,1-1.1.35,1.6,1.6,0,0,1-1.25-.57,2.21,2.21,0,0,1-.5-1.48,5.24,5.24,0,0,1,.48-2,9.29,9.29,0,0,1,1.23-2.14,4.37,4.37,0,0,1,.92-.88,1.59,1.59,0,0,1,.88-.29,2.46,2.46,0,0,1,.74.16,2.55,2.55,0,0,0,.74.17Z" transform="translate(0.35 32.83)"/><path class="cls-6" d="M148,378.84a1.22,1.22,0,0,0,1.59.15,33.45,33.45,0,0,0,4.47-3.91l.42-.41.11-.1c.58-.56.87-1,.88-1.24a1.62,1.62,0,0,0-.57-1l-.37-.37-.28-.27a1,1,0,0,1-.34-.73,1.07,1.07,0,0,1,.38-.73,1.66,1.66,0,0,1,1.42-.3,9.41,9.41,0,0,1,2.47.88,23,23,0,0,1,5.58,4,3.15,3.15,0,0,1,.88,1.32.93.93,0,0,1-.3,1,1.26,1.26,0,0,1-1.47.16,4.14,4.14,0,0,0-.53-.18,1.09,1.09,0,0,0-.84.27,20.64,20.64,0,0,0-2,1.74l-.47.46-1.3,1.26a26,26,0,0,0-2.64,2.79,1.83,1.83,0,0,0-.46,1.31,2.87,2.87,0,0,0,.57,1.19,4.23,4.23,0,0,1,.53.78.9.9,0,0,1,0,.54,1.65,1.65,0,0,1-.42.56,1.53,1.53,0,0,1-1.95.05,17.58,17.58,0,0,1-3.63-3.15,29.09,29.09,0,0,1-4-4.74c-.54-.94-.56-1.66-.06-2.14a1.14,1.14,0,0,1,.86-.38,1.39,1.39,0,0,1,.89.49c.07.07.16.19.28.34l.27.32Z" transform="translate(0.35 32.83)"/><path class="cls-6" d="M160.94,391.88a1.21,1.21,0,0,0,1.59-.06,33,33,0,0,0,3.88-4.5l.36-.46.09-.12c.5-.64.74-1.09.71-1.34a1.66,1.66,0,0,0-.7-.9l-.42-.31-.31-.23a1,1,0,0,1-.45-.68,1.12,1.12,0,0,1,.28-.77,1.59,1.59,0,0,1,1.37-.49,8.86,8.86,0,0,1,2.56.52,20.28,20.28,0,0,1,3.2,1.4,18.58,18.58,0,0,1,2.89,1.83,3.21,3.21,0,0,1,1.06,1.18,1,1,0,0,1-.16,1,1.26,1.26,0,0,1-1.44.36,5.17,5.17,0,0,0-.55-.1,1.11,1.11,0,0,0-.79.38,20.69,20.69,0,0,0-1.7,2l-.4.52-1.12,1.43a24.94,24.94,0,0,0-2.22,3.13,1.86,1.86,0,0,0-.28,1.36,2.78,2.78,0,0,0,.74,1.1,4.27,4.27,0,0,1,.63.69,1,1,0,0,1,.07.55,1.74,1.74,0,0,1-.34.61c-.42.54-1.06.64-1.93.32a18.07,18.07,0,0,1-4-2.61,29.21,29.21,0,0,1-4.62-4.14c-.67-.86-.79-1.57-.36-2.12a1.15,1.15,0,0,1,.8-.49,1.42,1.42,0,0,1,1,.36c.08.07.19.16.33.3l.31.27Z" transform="translate(0.35 32.83)"/><path class="cls-6" d="M172.33,400.73a3.12,3.12,0,0,1,2.06-1.37,3.29,3.29,0,0,1,3.79,2.55,3.3,3.3,0,0,1-2.57,3.79,3.05,3.05,0,0,1-2.41-.49,3.09,3.09,0,0,1-1.36-2.06,3.15,3.15,0,0,1,.49-2.42Z" transform="translate(0.35 32.83)"/><path class="cls-6" d="M193.76,407.07l3.85,1.63a25.34,25.34,0,0,0-.12-3.1c-.09-.73-.23-1.13-.42-1.21s-.49.07-.95.44-1.24,1.11-2.36,2.24ZM183.66,410c.24-.57.8-.82,1.66-.75a1.5,1.5,0,0,0,.35,0c.61,0,1.9-.91,3.85-2.79.63-.62,1.13-1.1,1.51-1.45l1.44-1.37a38.09,38.09,0,0,0,5.16-5.46,2.06,2.06,0,0,1,1.13-1,2.81,2.81,0,0,1,1.61.31,5.13,5.13,0,0,1,1.76,1.11,3.81,3.81,0,0,1,.92,1.6,15.44,15.44,0,0,1,.51,3.25c.11,1.43.18,3.61.23,6.51,0,.73,0,1.7,0,2.91a11,11,0,0,0,.32,3.87,1.77,1.77,0,0,0,.32.33c.61.57.81,1.11.6,1.61a1.64,1.64,0,0,1-1.79.89,13.15,13.15,0,0,1-4-1.21,17.51,17.51,0,0,1-4-2.12c-.68-.56-.9-1.14-.65-1.71A1.23,1.23,0,0,1,195,414a1.27,1.27,0,0,1,.73-.19,2.25,2.25,0,0,0,.8-.07.61.61,0,0,0,.32-.33c.15-.36,0-.73-.54-1.13a13.27,13.27,0,0,0-2.75-1.44,7.51,7.51,0,0,0-2.25-.69.87.87,0,0,0-.91.55.66.66,0,0,0,0,.53,1.49,1.49,0,0,0,.57.57,1,1,0,0,1,.41.59,1.21,1.21,0,0,1-.09.78,1.4,1.4,0,0,1-1.46.82,8.63,8.63,0,0,1-3.11-.86,8.15,8.15,0,0,1-2.6-1.56,1.39,1.39,0,0,1-.42-1.57Z" transform="translate(0.35 32.83)"/><path class="cls-6" d="M216.74,416.7a4.48,4.48,0,0,1-.12.46l-.06.23a8.13,8.13,0,0,0-.33,2.27,1.48,1.48,0,0,0,.54.95l.1.09a1.34,1.34,0,0,1,.55,1.34,1.63,1.63,0,0,1-1.54,1.22,11.48,11.48,0,0,1-3.9-.41,12.65,12.65,0,0,1-3.94-1.42,1.7,1.7,0,0,1-.92-1.85,1.34,1.34,0,0,1,1-1,3.86,3.86,0,0,0,1-.39A7.23,7.23,0,0,0,210,416q.57-2,1.84-7.54a4.81,4.81,0,0,0,.18-1.57,1.16,1.16,0,0,0-.42-.83,3.09,3.09,0,0,0-.45-.35,1.4,1.4,0,0,1-.77-1.47,1.17,1.17,0,0,1,.9-.92,4.65,4.65,0,0,1,2.13.13c.29.07.64.16,1,.28l.8.23c.47.11,1.37.26,2.7.47s2.4.41,3.23.6c2.51.58,4.28,1.5,5.29,2.74a5.4,5.4,0,0,1,.84,4.83,6,6,0,0,1-3.05,4.21,8.39,8.39,0,0,1-5.87.42c-.33-.08-.82-.23-1.49-.44l-.15-.05Zm1.17-6-.14.6a11.37,11.37,0,0,0-.35,1.89.43.43,0,0,0,.38.43,2.06,2.06,0,0,0,1.8-.34,3.2,3.2,0,0,0,1.06-1.88,4,4,0,0,0,0-2.34,1.82,1.82,0,0,0-1.35-1.14.56.56,0,0,0-.64.27,9.37,9.37,0,0,0-.62,2.09l-.1.42Z" transform="translate(0.35 32.83)"/><path class="cls-6" d="M238.16,416.2l.4.13a2.14,2.14,0,0,0,.35.06,1.68,1.68,0,0,0,1.51-.5,4,4,0,0,0,.63-2.11,2.61,2.61,0,0,0-.3-1.73,1.66,1.66,0,0,0-1.33-.67.71.71,0,0,0-.76.29,6.16,6.16,0,0,0-.33,1.88l-.09,1c0,.22,0,.44-.05.69s0,.56,0,.94Zm-.19,3.28c0,.13,0,.39-.08.8s-.08.74-.11,1l-.07.78a7.65,7.65,0,0,0,0,1.64,1.09,1.09,0,0,0,.39.64,2.46,2.46,0,0,0,.24.16,1.64,1.64,0,0,1,.83,1.43,1.4,1.4,0,0,1-1.21,1.24,19.44,19.44,0,0,1-7.91-.73c-.77-.35-1.13-.84-1.07-1.48s.44-.93,1.18-1.23l.29-.12c.21-.09.43-.73.67-1.9a43.24,43.24,0,0,0,.61-4.69c.21-2.43.32-4,.32-4.77a2.82,2.82,0,0,0-.23-1.42,2.66,2.66,0,0,0-.52-.38q-1-.62-.93-1.38a1.23,1.23,0,0,1,1-1.06,6.84,6.84,0,0,1,2.62-.16l1.15.12,1.47.14c.74.06,1.69.13,2.83.19l2.3.15a8.84,8.84,0,0,1,5,1.73,4.21,4.21,0,0,1,1.47,3.8,4.45,4.45,0,0,1-.63,2,4,4,0,0,1-1.46,1.36,4.24,4.24,0,0,1-.61.27c-.41.16-.62.32-.63.49s.22.4.72.6a7.68,7.68,0,0,1,.85.41,3.38,3.38,0,0,1,1.21,1.4,6,6,0,0,1,.6,2.18c0,.21.05.51.07.88.06,1,.21,1.54.44,1.67l.31.16c.75.36,1.1.79,1.06,1.26-.06.64-.5,1.12-1.33,1.44a7.25,7.25,0,0,1-3.23.3,5.46,5.46,0,0,1-3.36-1.2,6.76,6.76,0,0,1-1.46-3.74l0-.28c-.38-2.42-1.05-3.67-2-3.76h-.36a2,2,0,0,0-.34.06Z" transform="translate(0.35 32.83)"/><path class="cls-6" d="M252.05,426a1.76,1.76,0,0,1,1-1.5,2.36,2.36,0,0,0,.53-.41,3.32,3.32,0,0,0,.37-1.72c0-.93,0-2.47,0-4.62l-.13-3.55a5.25,5.25,0,0,0-.2-1.54A1.34,1.34,0,0,0,253,412l-.34-.19a1.44,1.44,0,0,1-.89-1.18c0-.66.39-1.16,1.25-1.51a12.07,12.07,0,0,1,3.92-.62,11.93,11.93,0,0,1,3.84.32c.82.27,1.24.74,1.26,1.39a1.57,1.57,0,0,1-.88,1.34,2.17,2.17,0,0,0-.44.34,4.93,4.93,0,0,0-.33,2.28c0,1.32,0,3.72.14,7.2a9.35,9.35,0,0,0,.2,2.06,1.37,1.37,0,0,0,.5.75,4.19,4.19,0,0,0,.38.25,1.66,1.66,0,0,1,.9,1.28c0,.65-.39,1.15-1.24,1.49a12.77,12.77,0,0,1-4,.61,11.67,11.67,0,0,1-3.88-.38c-.92-.31-1.4-.78-1.42-1.4Zm9.32-21.32a.48.48,0,0,1-.16.42,2.12,2.12,0,0,1-.67.28c-1.53.44-2.77.78-3.73,1a12.21,12.21,0,0,1-1.69.39.79.79,0,0,1-.7-.34,1.55,1.55,0,0,1-.29-.92c0-.3.44-.63,1.36-1l.42-.17c1.51-.62,2.57-1.05,3.2-1.28a6.27,6.27,0,0,1,1.14-.36c.29,0,.55.18.77.58a2.93,2.93,0,0,1,.35,1.37Z" transform="translate(0.35 32.83)"/><path class="cls-6" d="M278.61,424.65l-9,1.75a1.57,1.57,0,0,1-1.29-2.81,4.42,4.42,0,0,0,.48-.54,2.49,2.49,0,0,0,.26-1.34,29.27,29.27,0,0,0-.56-3.66l-.65-3.33a29.41,29.41,0,0,0-.66-2.88,1.61,1.61,0,0,0-.51-.91,2.21,2.21,0,0,0-.56-.11,1.38,1.38,0,0,1-1.38-1.09c-.13-.64.26-1.21,1.15-1.74a16.94,16.94,0,0,1,8.05-1.62c.95.14,1.48.51,1.6,1.13a1.46,1.46,0,0,1-.78,1.5c-.17.13-.31.23-.4.31a1.46,1.46,0,0,0-.38.48,1.31,1.31,0,0,0-.05.59c0,.43.13,1,.26,1.83s.34,1.91.62,3.35l.52,2.68.19,1a3.76,3.76,0,0,0,.77,2,2.14,2.14,0,0,0,1.58.09,4.69,4.69,0,0,0,2.08-.81,2.51,2.51,0,0,0,.84-1.53c0-.12,0-.29.07-.51q.18-1.23.9-1.38a1.64,1.64,0,0,1,1.38.36,2.31,2.31,0,0,1,.8,1.41,6.52,6.52,0,0,1,0,2.08,7.52,7.52,0,0,1-.54,2.12,2.46,2.46,0,0,1-.59.86,1.64,1.64,0,0,1-.77.4h-.28a13.82,13.82,0,0,0-3.15.29Z" transform="translate(0.35 32.83)"/><path class="cls-6" d="M298.61,415.73a1.21,1.21,0,0,0,.71-1.42,33.28,33.28,0,0,0-2.05-5.58l-.23-.53-.06-.14c-.32-.75-.6-1.17-.84-1.27A1.56,1.56,0,0,0,295,407l-.48.22-.35.16a1,1,0,0,1-.8.06,1.06,1.06,0,0,1-.54-.62,1.59,1.59,0,0,1,.23-1.44,9,9,0,0,1,1.7-2,19.84,19.84,0,0,1,2.77-2.12,19.18,19.18,0,0,1,3-1.65,3.32,3.32,0,0,1,1.55-.35,1,1,0,0,1,.81.64,1.25,1.25,0,0,1-.39,1.42c-.16.19-.28.33-.35.43a1.12,1.12,0,0,0-.05.88,20.9,20.9,0,0,0,.93,2.46l.25.6.71,1.67a25.54,25.54,0,0,0,1.66,3.46,1.83,1.83,0,0,0,1.06.9,2.8,2.8,0,0,0,1.32-.1,3.84,3.84,0,0,1,.91-.22,1,1,0,0,1,.5.2,1.67,1.67,0,0,1,.38.6q.41.93-.66,1.83a17.76,17.76,0,0,1-4.24,2.27,29.56,29.56,0,0,1-5.85,2c-1.08.16-1.76-.08-2-.72a1.11,1.11,0,0,1,0-.94,1.38,1.38,0,0,1,.77-.65l.42-.15.4-.14Z" transform="translate(0.35 32.83)"/><path class="cls-6" d="M316.36,401.72a.62.62,0,0,0,.32-.54,1.56,1.56,0,0,0-.23-.83,4.68,4.68,0,0,0-1.64-1.77,1.6,1.6,0,0,0-1.68-.26.68.68,0,0,0-.35.6,1.68,1.68,0,0,0,.25.94,4.2,4.2,0,0,0,1.65,1.69,1.77,1.77,0,0,0,1.68.17Zm.84,4.21c-.28.26-.53.47-.76.66a5.42,5.42,0,0,1-.6.41,4.83,4.83,0,0,1-4.34.21,7.35,7.35,0,0,1-3.7-3.44,6.34,6.34,0,0,1-.55-5.36A9.2,9.2,0,0,1,317,393a6.28,6.28,0,0,1,4.28,3.3,14.35,14.35,0,0,1,1.68,5.78,23.88,23.88,0,0,1-.55,7.13,6.47,6.47,0,0,1-.49,1.62,1.58,1.58,0,0,1-.65.7,5,5,0,0,1-2.54.53c-1,0-1.64-.2-1.83-.54a10.66,10.66,0,0,1,.45-2,5.35,5.35,0,0,0-.19-3.55Z" transform="translate(0.35 32.83)"/><path class="cls-6" d="M328.23,391.14a10.78,10.78,0,0,0,2.76,2.58c1,.59,1.63.73,2,.42a.89.89,0,0,0,.25-1,5.25,5.25,0,0,0-1-1.68,11.33,11.33,0,0,0-2.78-2.64c-.95-.59-1.63-.74-2-.44a.91.91,0,0,0-.25,1,5.25,5.25,0,0,0,1,1.72ZM324,395.79a8.42,8.42,0,0,1-2-6.1,7.24,7.24,0,0,1,2.9-5.25,7,7,0,0,1,5.84-1.44,9.36,9.36,0,0,1,5.63,3.71,8.91,8.91,0,0,1,2.1,6.1,6.75,6.75,0,0,1-2.71,5.15,7.29,7.29,0,0,1-6,1.48,9.23,9.23,0,0,1-5.75-3.65Z" transform="translate(0.35 32.83)"/><path class="cls-6" d="M344.88,378.41a.63.63,0,0,0,.14-.61,1.52,1.52,0,0,0-.46-.73,4.77,4.77,0,0,0-2.09-1.22,1.61,1.61,0,0,0-1.68.25.68.68,0,0,0-.16.67,1.77,1.77,0,0,0,.52.83,4.06,4.06,0,0,0,2.07,1.13,1.76,1.76,0,0,0,1.66-.32Zm2,3.78c-.19.32-.37.6-.54.85a4.51,4.51,0,0,1-.45.56,4.82,4.82,0,0,1-4.09,1.48,7.35,7.35,0,0,1-4.54-2.22,6.33,6.33,0,0,1-2.1-4.95,8,8,0,0,1,2.53-5.33,8.14,8.14,0,0,1,5.26-2.72,6.33,6.33,0,0,1,5,1.91,14.34,14.34,0,0,1,3.3,5,23.81,23.81,0,0,1,1.56,7,7.22,7.22,0,0,1,0,1.69,1.64,1.64,0,0,1-.43.86,5,5,0,0,1-2.27,1.25c-1,.28-1.63.28-1.91,0a11.83,11.83,0,0,1-.16-2.08,5.34,5.34,0,0,0-1.22-3.34Z" transform="translate(0.35 32.83)"/><path class="cls-5" d="M190.59,169.32a1.78,1.78,0,0,1,.28-1.8,2.73,2.73,0,0,0,.29-.59,3.14,3.14,0,0,0-.42-1.71q-.54-1.29-2.06-4.13L187,158a5.41,5.41,0,0,0-.85-1.3,1.37,1.37,0,0,0-.83-.36l-.39,0a1.46,1.46,0,0,1-1.32-.67,1.63,1.63,0,0,1,.46-1.9,12.15,12.15,0,0,1,3.26-2.28,11.58,11.58,0,0,1,3.59-1.39,1.54,1.54,0,0,1,1.74.69,1.56,1.56,0,0,1-.2,1.59,2.8,2.8,0,0,0-.25.5,5.1,5.1,0,0,0,.7,2.19q.84,1.8,3.28,6.41a10.23,10.23,0,0,0,1.09,1.78,1.43,1.43,0,0,0,.78.44l.45.07a1.65,1.65,0,0,1,1.37.75c.31.57.15,1.2-.46,1.88a12.77,12.77,0,0,1-3.29,2.28,11.55,11.55,0,0,1-3.66,1.36c-1,.13-1.59-.09-1.89-.64Zm-1-23.24a.47.47,0,0,1,0,.44,2,2,0,0,1-.48.56c-1.18,1.06-2.14,1.91-2.9,2.56a15.11,15.11,0,0,1-1.34,1.09.82.82,0,0,1-.79,0,1.61,1.61,0,0,1-.66-.7c-.14-.26.12-.76.79-1.5l.3-.33c1.08-1.23,1.85-2.08,2.31-2.56a5.31,5.31,0,0,1,.88-.82.87.87,0,0,1,.94.19,3,3,0,0,1,.92,1.07Z" transform="translate(0.35 32.83)"/><path class="cls-5" d="M208.37,163.25a14.65,14.65,0,0,1-4.2.88,5.94,5.94,0,0,1-3-.33,4.57,4.57,0,0,1-1.47-1.41,10.26,10.26,0,0,1-1.23-2.41,2.09,2.09,0,0,1-.14-1.28,1.16,1.16,0,0,1,.78-.72,2.26,2.26,0,0,1,2,.61c.25.19.44.32.58.41a6.59,6.59,0,0,0,2.46,1,4.43,4.43,0,0,0,2.3-.16,2.6,2.6,0,0,0,1.2-.81,1,1,0,0,0,.21-1c-.17-.47-1-.69-2.4-.65h-1.55a10.2,10.2,0,0,1-4.85-1.09,5.62,5.62,0,0,1-2.6-3.08,5.74,5.74,0,0,1,.48-5.06,8.43,8.43,0,0,1,4.62-3.6,12.06,12.06,0,0,1,2.47-.61l1.3-.18a3.7,3.7,0,0,0,.77-.41,3.47,3.47,0,0,1,.67-.37,2.85,2.85,0,0,1,2.53.66,4.9,4.9,0,0,1,2,2.29,2.06,2.06,0,0,1,0,1.58,1.8,1.8,0,0,1-1.11,1,3.58,3.58,0,0,1-2.39-.47c-.3-.14-.54-.24-.71-.3a4.35,4.35,0,0,0-1.51-.33,4.08,4.08,0,0,0-1.49.23,1.9,1.9,0,0,0-1,.68,1,1,0,0,0-.11.91c.24.67,1.41.91,3.49.75l1.56-.1a7.09,7.09,0,0,1,4.05.81,5.4,5.4,0,0,1,2.32,2.93,6.16,6.16,0,0,1-.59,5.59,10.12,10.12,0,0,1-5.39,4Z" transform="translate(0.35 32.83)"/><path class="cls-5" d="M226.88,157.73l-9,1.6a1.62,1.62,0,0,1-1.27-.23,1.65,1.65,0,0,1-.65-1.12,1.61,1.61,0,0,1,.68-1.48,4.83,4.83,0,0,0,.49-.53,2.57,2.57,0,0,0,.28-1.34,29.25,29.25,0,0,0-.5-3.67l-.59-3.34a27.59,27.59,0,0,0-.61-2.89c-.15-.51-.31-.82-.49-.92a2.59,2.59,0,0,0-.56-.12,1.37,1.37,0,0,1-1.36-1.12c-.12-.63.28-1.2,1.18-1.72a13.09,13.09,0,0,1,4-1.24,12.72,12.72,0,0,1,4.05-.23c.94.15,1.47.54,1.58,1.15a1.49,1.49,0,0,1-.81,1.5c-.17.12-.31.21-.4.29a1.38,1.38,0,0,0-.39.48,1.27,1.27,0,0,0-.06.59c0,.43.1,1,.22,1.83s.31,1.92.56,3.36l.48,2.69.17,1c.21,1.14.45,1.82.74,2a2.13,2.13,0,0,0,1.58.13,4.76,4.76,0,0,0,2.09-.77,2.48,2.48,0,0,0,.86-1.52c0-.12,0-.29.08-.51.14-.82.44-1.28.92-1.36a1.62,1.62,0,0,1,1.38.37,2.32,2.32,0,0,1,.78,1.44,7,7,0,0,1,0,2.07,7.38,7.38,0,0,1-.58,2.11,2.47,2.47,0,0,1-.6.85,1.6,1.6,0,0,1-.78.39H230a14.17,14.17,0,0,0-3.15.23Z" transform="translate(0.35 32.83)"/><path class="cls-5" d="M241.15,148.25l4.18-.08a24.86,24.86,0,0,0-1.37-2.78c-.38-.63-.67-.94-.88-.93s-.41.26-.68.78-.69,1.53-1.25,3Zm-8,6.78q0-.92,1.2-1.35l.33-.12c.57-.23,1.37-1.61,2.39-4.12.32-.82.59-1.47.78-1.95s.44-1,.77-1.83a38.87,38.87,0,0,0,2.49-7.09,2,2,0,0,1,.64-1.34,2.82,2.82,0,0,1,1.59-.38,5.39,5.39,0,0,1,2.07.3,3.94,3.94,0,0,1,1.48,1.09,15.35,15.35,0,0,1,1.79,2.76q1,1.91,2.86,5.86c.31.66.7,1.55,1.17,2.66a11.17,11.17,0,0,0,1.87,3.41,4.18,4.18,0,0,0,.42.17c.8.27,1.2.68,1.21,1.22,0,.7-.42,1.21-1.28,1.54a13.5,13.5,0,0,1-4.18.55,18.31,18.31,0,0,1-4.53-.31c-.85-.24-1.28-.67-1.3-1.3a1.34,1.34,0,0,1,.2-.72,1.32,1.32,0,0,1,.59-.47,2.09,2.09,0,0,0,.71-.4.6.6,0,0,0,.15-.42c0-.39-.33-.66-.95-.81a13.41,13.41,0,0,0-3.1-.2,7.35,7.35,0,0,0-2.33.29.85.85,0,0,0-.61.87.67.67,0,0,0,.19.5,1.71,1.71,0,0,0,.75.29.93.93,0,0,1,.61.37,1.17,1.17,0,0,1,.24.74,1.4,1.4,0,0,1-1,1.35,9,9,0,0,1-3.19.48,8.17,8.17,0,0,1-3-.37,1.37,1.37,0,0,1-1-1.27Z" transform="translate(0.35 32.83)"/><path class="cls-5" d="M260.45,147.84a45.37,45.37,0,0,0,.4-4.63,4.41,4.41,0,0,0-.3-2,5.94,5.94,0,0,0-.84-.68,1.35,1.35,0,0,1-.68-1.24,1.45,1.45,0,0,1,1.22-1.27,11,11,0,0,1,3.7,0,9.54,9.54,0,0,1,1.26.2,2.78,2.78,0,0,1,.68.25,4.38,4.38,0,0,1,.85.7c.34.34.92,1,1.76,2,.31.36.73.88,1.28,1.54,2.34,2.8,3.73,4.23,4.19,4.29a.49.49,0,0,0,.48-.25,2.08,2.08,0,0,0,.27-.88c0-.44.11-.9.19-1.38a2,2,0,0,0,0-.23,3.05,3.05,0,0,0-.05-1.33,1.51,1.51,0,0,0-.69-.76l-.09-.07a1.23,1.23,0,0,1-.67-1.31,1.34,1.34,0,0,1,1-1.23,8.84,8.84,0,0,1,3.28,0,8.16,8.16,0,0,1,2.91.73,1.27,1.27,0,0,1,.68,1.35,1.61,1.61,0,0,1-.32.85,2,2,0,0,1-.94.51,1.44,1.44,0,0,0-.76.55,7.89,7.89,0,0,0-.55,1.72c-.16.7-.31,1.47-.45,2.29s-.31,2-.51,3.6l0,.32c-.2,1.6-.36,2.76-.49,3.48s-.29,1.37-.45,1.94a3.2,3.2,0,0,1-.73,1.41,1.23,1.23,0,0,1-1.07.37,3.24,3.24,0,0,1-1.51-.94c-.62-.58-1.74-1.85-3.38-3.81-.62-.73-1.39-1.66-2.31-2.8-1.43-1.78-2.31-2.69-2.61-2.73a.67.67,0,0,0-.72.44,6.4,6.4,0,0,0-.43,1.88,11.72,11.72,0,0,0-.09,2,2.26,2.26,0,0,0,.24,1.13,2.39,2.39,0,0,0,.5.43,1.44,1.44,0,0,1,.71,1.3,1.52,1.52,0,0,1-1.13,1.29,6.9,6.9,0,0,1-2.94.12,8.07,8.07,0,0,1-2.94-.81,1.44,1.44,0,0,1-.83-1.45,1.55,1.55,0,0,1,1-1.12,3.87,3.87,0,0,0,.59-.33,2.86,2.86,0,0,0,.66-1.47,36.11,36.11,0,0,0,.64-4Z" transform="translate(0.35 32.83)"/><path class="cls-5" d="M278.8,157.55a1.65,1.65,0,0,1,1.59-1.11,1.89,1.89,0,0,0,.54-.11c.17-.07.47-.65.88-1.73s.93-2.65,1.55-4.7c0-.07.08-.24.16-.51.4-1.23.77-2.42,1.11-3.54.24-.78.18-1.32-.17-1.63a2.85,2.85,0,0,1-.24-.22,1.38,1.38,0,0,1-.42-.66,1.47,1.47,0,0,1,0-.85,1.36,1.36,0,0,1,1-1.05,6.8,6.8,0,0,1,2.81.48l1.05.33,1,.33,1.81.54,3.38,1c2.92.89,4.94,2.38,6,4.46s1.21,4.6.31,7.54a11.73,11.73,0,0,1-1.67,3.48A8.84,8.84,0,0,1,297,162a7.11,7.11,0,0,1-3.53,1.13,13.75,13.75,0,0,1-4.61-.73c-.43-.14-1.28-.42-2.53-.85s-2.3-.76-3.14-1l-1.61-.49c-.51-.15-.92-.29-1.25-.41s-.6-.25-.82-.36a1.35,1.35,0,0,1-.64-.73,1.46,1.46,0,0,1,0-1Zm11.28-6.88c-.52,1.71-1,3.16-1.3,4.36s-.56,2-.64,2.33a2.1,2.1,0,0,0,0,1q.11.28.63.45a3.45,3.45,0,0,0,3.3-.48,7.69,7.69,0,0,0,2.22-3.85,9.61,9.61,0,0,0,.47-5.17,3.58,3.58,0,0,0-2.62-2.53,1.6,1.6,0,0,0-.54-.07q-.22,0-.27.12a6,6,0,0,0-.26.72c-.14.43-.46,1.46-1,3.12Z" transform="translate(0.35 32.83)"/><path class="cls-5" d="M299.05,164.13a1.76,1.76,0,0,1,1.62-.83,3.33,3.33,0,0,0,.66-.11c.27-.1.65-.55,1.13-1.35s1.19-2.17,2.13-4.1l1.56-3.19a5.28,5.28,0,0,0,.55-1.46,1.39,1.39,0,0,0-.19-.88l-.21-.33a1.43,1.43,0,0,1-.23-1.46c.28-.59.89-.84,1.81-.75a12.49,12.49,0,0,1,3.76,1.3,11.79,11.79,0,0,1,3.23,2.08,1.54,1.54,0,0,1,.46,1.82,1.56,1.56,0,0,1-1.4.77,4.11,4.11,0,0,0-.55.09c-.26.09-.72.72-1.36,1.86s-1.74,3.29-3.26,6.42a10.9,10.9,0,0,0-.8,1.92,1.4,1.4,0,0,0,.1.89c0,.1.12.24.21.41a1.64,1.64,0,0,1,.2,1.55c-.28.59-.88.83-1.79.73a12.54,12.54,0,0,1-3.78-1.32,11.56,11.56,0,0,1-3.25-2.15c-.67-.71-.87-1.35-.6-1.91Z" transform="translate(0.35 32.83)"/><polygon class="cls-4" points="195.76 211.63 209.52 211.63 209.52 215.61 195.76 215.61 195.76 211.63 195.76 211.63"/><polygon class="cls-4" points="290.91 211.63 304.67 211.63 304.67 215.61 290.91 215.61 290.91 211.63 290.91 211.63"/><path class="cls-2" d="M48,29.26c10.82,6,16,18.67,14.4,31.55-1.89,15.65-3.87,27.06-3.53,35.9.52,13.79,3.61,21.5,9.1,29.35,8.74,12.49,22.51,17.15,32.09,16.81,18.89-.67,43.19-7.73,50.55-40.84,2.77-12.46,1.57-28.45-.93-48.86-1.35-11-2.45-14.1,7.34-24.21l-9.8-26.34c-8.22,10-17.1,18.3-26.95,24.19,1.76,6.38,7.15,21.06,8.29,37.64,1.67,24.22-5.43,51.72-23.9,51.17-14.94-.44-23.52-17-20.83-47.7,1.1-12.49,4.57-28.66,10.1-44.17C81.49,22.39,71.28,20.1,63,10.59L48,29.26Z" transform="translate(0.35 32.83)"/><path class="cls-2" d="M166.52,9.05c11.62,18.49,14.15,53.28,12.86,80.85-.43,9-6.34,16.22-15.93,22.66v9.19l36.75-8.58-2.76-54.5,23.28,26.94L240,54.37l1.84,54.2,35.82.62.92-6.74c-18.26-7.28-19-31.73-18.85-47.64.23-18.6-1.07-33.1,2.93-50.35l-16.23-.31L218.88,50.08C206.73,32.63,197.34,16.41,183.36,6L166.52,9.05Z" transform="translate(0.35 32.83)"/><path class="cls-2" d="M345,43.35l-6-1.2C335,54.09,330.8,55,325.31,55c-6,0-10.79-4.32-10.15-10,1.36-12.13,10.65-20.12,18.81-20.68,8.36-.57,17.26,5.64,18.4,18.47l10.14-.09A108.23,108.23,0,0,1,368.84,7.4c-31.2,3.57-53.23,4.29-80.45-4.17L286.56,16.4c7.28,5.45,8.71,19.46,9,27.05.77,20.69-2.73,48.41-7.15,68.5a219,219,0,0,1,31.53,7.35l.92-9.5c-9.38-6.63-9.08-14.85-8-23.58.91-7.15,1.86-14.25,7.66-16.53,4.89-1.93,8.88,4.39,9.19,14.69l7.65,1.84A183.88,183.88,0,0,1,345,43.35Z" transform="translate(0.35 32.83)"/><path class="cls-2" d="M337.55,122.73c30.31-36.52,55-75.49,49-109.57l12.24-7.95c11.22,12,23.88,19.58,41.63,25.09a307,307,0,0,0-7.25,74.76c.65,20.23,2.82,40.85,9.69,57.46l-8.87,15a194.84,194.84,0,0,0-27.24-23.25,50,50,0,0,0,10.4-24.18c1.75-11.83-2.21-24.12-12.24-30.61-7.53-4.87-21.12-1.75-25.41,6.12-4.82,8.87-.6,21.42,4,28.77l-4.9,6.12a207.38,207.38,0,0,0-41-17.75Zm70.39-76.82L394.17,65.49a7.56,7.56,0,0,0,.3,8.88c4.7,6.12,11.8,12.72,19.29,14.54,5.37,1.31,6.12-2.15,6.27-5,.38-7.7-2.66-28.39-5.77-36.6-1-2.73-4.13-4.48-6.32-1.36Z" transform="translate(0.35 32.83)"/></svg>