<svg id="Layer_1" data-name="Layer 1" xmlns="http://www.w3.org/2000/svg" viewBox="0 0 362.33 313.83"><defs><style>.cls-1{fill:#0033a0;}.cls-2{fill:#f7dd16;}.cls-3{fill:#fff;}</style></defs><polygon class="cls-1" points="0 0 181.16 313.83 362.33 0 0 0"/><polygon class="cls-2" points="20.03 11.54 181.16 290.63 342.3 11.54 20.03 11.54"/><path class="cls-1" d="M96.15,65.07c2.64.15,3.36.37,3.36,2.93,0,2.9-.58,5.43-4.36,5.43S88.7,70.5,88.7,62.66s3.43-10.77,6.73-10.77c3.09,0,5.22,2,8.34,5.78l1.14-.38-2.1-6.62a6.67,6.67,0,0,1-2.88.91,7.46,7.46,0,0,1-2.1-.47,9.62,9.62,0,0,0-2.68-.44c-7.52,0-12.43,6.47-12.43,12.8,0,6.69,4.64,11.18,12,11.18a18.44,18.44,0,0,0,5.22-.9,12.85,12.85,0,0,1,4.74-.69V68.44c0-2.37.31-3.09,3.12-3.37V63.85H96.15Z" transform="translate(-3.84 -28.08)"/><path class="cls-1" d="M139.84,68.81,138,65.44a6.94,6.94,0,0,0-2.2-2.78c3.3-.56,6.63-2.18,6.63-5.62s-3.13-5.81-8.21-5.81H119.44v1c2.48,0,3.33.68,3.33,2.87v15c0,2.18-.85,2.87-3.33,2.87v1h12.3v-1c-2.47,0-3.33-.69-3.33-2.87v-7c1.44,0,2.78.35,4.84,4.37l2,3.91a25.83,25.83,0,0,0,1.47,2.62h8.49v-1C142.28,72.87,141.11,70.94,139.84,68.81Zm-10.78-7.08h-.65V55c0-1.78.1-2.56,2.37-2.56,3.67,0,5.66,1.13,5.66,4.28C136.44,60,134.73,61.73,129.06,61.73Z" transform="translate(-3.84 -28.08)"/><path class="cls-1" d="M194.71,51.23,193,57.48l1.27.31c1.82-2.53,4.5-5,7.93-5.34V70.19c0,2.18-.86,2.87-3.33,2.87v1h12.3v-1c-2.48,0-3.34-.69-3.34-2.87V52.45c3.3.07,6.36,3,8,5.34l1.27-.31-1.86-6.25Z" transform="translate(-3.84 -28.08)"/><path class="cls-1" d="M230.17,51.23l-1.69,6.25,1.27.31c1.82-2.53,4.5-5,7.94-5.34V70.19c0,2.18-.86,2.87-3.34,2.87v1h12.3v-1c-2.47,0-3.33-.69-3.33-2.87V52.45c3.3.07,6.35,3,8,5.34l1.27-.31-1.85-6.25Z" transform="translate(-3.84 -28.08)"/><path class="cls-1" d="M283.09,69.12l-6.39-18.7-5,1.47L265,68.13c-1.06,2.56-1.75,4.12-4.94,4.93v1h9.13v-1c-1.51-.09-3.09-.72-3.09-2.31a7.76,7.76,0,0,1,.69-2.62l.75-2h8.76l1.23,3.68a5.48,5.48,0,0,1,.42,1.81c0,.94-.52,1.35-2.71,1.41v1h12v-1C284.19,73,283.84,71.37,283.09,69.12Zm-14.87-4.43,4.09-10,3.43,10Z" transform="translate(-3.84 -28.08)"/><path class="cls-1" d="M168.85,50.67a11.84,11.84,0,0,0-12.33,12.24c0,6.87,4.81,11.74,12.3,11.74,7.89,0,12.56-5.9,12.56-12.21C181.38,55.54,176.58,50.67,168.85,50.67Zm-.21,22.76c-3.71,0-6.14-3-6.14-10.8,0-7.55,2.61-10.74,6.56-10.74,3.67,0,6.35,2.72,6.35,10.77C175.41,66.91,174.89,73.43,168.64,73.43Z" transform="translate(-3.84 -28.08)"/><path class="cls-1" d="M169.82,48.32c.51-.65,2.81-3.4,2.81-4.15s-1.13-1-1.82-1c-1.65,0-2.13.66-2.64,1.94l-1.47,3.8,2.35.36Z" transform="translate(-3.84 -28.08)"/><polygon class="cls-1" points="161.22 70.08 67.55 70.08 77.34 87.04 161.22 87.04 161.22 70.08"/><polygon class="cls-1" points="161.22 91.14 79.71 91.14 89.5 108.09 161.22 108.09 161.22 91.14"/><polygon class="cls-1" points="161.22 112.2 91.87 112.2 101.66 129.15 161.22 129.15 161.22 112.2"/><polygon class="cls-1" points="161.22 133.25 104.03 133.25 113.81 150.2 161.22 150.2 161.22 133.25"/><polygon class="cls-1" points="201.12 70.08 201.12 87.04 284.99 87.04 294.78 70.08 201.12 70.08"/><polygon class="cls-1" points="201.12 108.09 272.82 108.09 282.62 91.14 201.12 91.14 201.12 108.09"/><polygon class="cls-1" points="201.12 129.15 260.67 129.15 270.46 112.2 201.12 112.2 201.12 129.15"/><polygon class="cls-1" points="201.12 150.2 248.52 150.2 258.31 133.25 201.12 133.25 201.12 150.2"/><polygon class="cls-1" points="193.31 53.18 154.09 53.18 154.09 62.88 169.02 62.88 169.02 183.58 133.99 183.58 141.13 195.97 159.6 195.97 144.66 202.78 149.98 213.92 169.38 204.95 155.8 219.21 164.5 227.77 174.96 216.77 174.96 233.27 187.37 233.27 187.37 216.77 197.82 227.77 206.53 219.21 192.95 204.95 212.35 213.92 217.67 202.78 202.73 195.97 221.2 195.97 228.34 183.58 193.31 183.58 193.31 53.18"/><path class="cls-3" d="M185,85.83a4.43,4.43,0,1,0,4.43,4.43A4.43,4.43,0,0,0,185,85.83Z" transform="translate(-3.84 -28.08)"/></svg>