<svg id="Layer_1" data-name="Layer 1" xmlns="http://www.w3.org/2000/svg" viewBox="0 0 215.27 277.79"><defs><style>.cls-1{fill:#fff;}.cls-2{fill:#1295d8;}.cls-3{fill:#ee3a3a;}.cls-4{fill:#ffcc52;}</style></defs><path class="cls-1" d="M141.73,2.84C171.79,34.66,208.16,53.59,249.37,62c-4.12,88-40.09,161.53-107.64,218.6C74.18,223.56,38.22,150,34.1,62c41.21-8.44,77.57-27.37,107.63-59.19" transform="translate(-34.1 -2.84)"/><path class="cls-2" d="M189.07,45.43A202.63,202.63,0,0,1,141.73,9.76,202.42,202.42,0,0,1,94.39,45.43,213,213,0,0,1,39.12,65.88a319.74,319.74,0,0,0,8.7,58.25,280,280,0,0,0,52.94,107.65,317.93,317.93,0,0,0,41,42.52,317.93,317.93,0,0,0,41-42.52,282.55,282.55,0,0,0,32.32-51,283.3,283.3,0,0,0,20.62-56.68,319.73,319.73,0,0,0,8.71-58.25,213,213,0,0,1-55.28-20.45M214.89,119a262.44,262.44,0,0,1-19.06,52.4A261.56,261.56,0,0,1,166,218.49a289.06,289.06,0,0,1-24.23,26.78,287.52,287.52,0,0,1-24.22-26.78A258.27,258.27,0,0,1,68.57,119,290.48,290.48,0,0,1,62,82a228.68,228.68,0,0,0,42.64-17.74,220.88,220.88,0,0,0,37.14-25.39,221,221,0,0,0,37.15,25.39A228.87,228.87,0,0,0,221.51,82a288.74,288.74,0,0,1-6.62,37" transform="translate(-34.1 -2.84)"/><path class="cls-3" d="M141.73,238.49a283,283,0,0,1-20.45-23,253.47,253.47,0,0,1-48-97.68,284.47,284.47,0,0,1-6-32.46,233.7,233.7,0,0,0,39.67-16.91,225.65,225.65,0,0,0,34.85-23.37,226.61,226.61,0,0,0,34.85,23.37,233.46,233.46,0,0,0,39.68,16.91,284.47,284.47,0,0,1-6,32.46,257.6,257.6,0,0,1-18.7,51.44,257.05,257.05,0,0,1-29.33,46.24,281.23,281.23,0,0,1-20.46,23" transform="translate(-34.1 -2.84)"/><path d="M180.32,164.55a38.59,38.59,0,1,0-38.59,38.6,38.59,38.59,0,0,0,38.59-38.6" transform="translate(-34.1 -2.84)"/><path class="cls-4" d="M127.62,175.56c.85.92,1.53,1.74,1.89,2.19a33,33,0,0,1,4.71,7.55,25.77,25.77,0,0,1,15,0,32.63,32.63,0,0,1,4.71-7.55c.36-.45,1-1.27,1.88-2.19a65.09,65.09,0,0,1-14.11,1.36,65.17,65.17,0,0,1-14.11-1.36" transform="translate(-34.1 -2.84)"/><path class="cls-4" d="M155.84,153.54c-.84-.91-1.52-1.74-1.88-2.18a32.86,32.86,0,0,1-4.71-7.55c-3.71,1.48-11.33,1.48-15,0a33.2,33.2,0,0,1-4.71,7.55c-.36.44-1,1.27-1.89,2.18a65.17,65.17,0,0,1,14.11-1.36,65.09,65.09,0,0,1,14.11,1.36" transform="translate(-34.1 -2.84)"/><path class="cls-4" d="M151.59,141.83a1.7,1.7,0,0,1,.1.32c.75,3.36,7.42,11.72,10.34,13l12.8-4.3a36,36,0,0,0-19.42-19.4Z" transform="translate(-34.1 -2.84)"/><path class="cls-4" d="M163.29,157.7a2.53,2.53,0,0,1-.18.37c-1.43,2.24-1.43,10.73,0,13a2.53,2.53,0,0,1,.18.37l12.52,4.2a35.82,35.82,0,0,0,0-22.12Z" transform="translate(-34.1 -2.84)"/><path class="cls-4" d="M120.17,171.41a1.85,1.85,0,0,1,.19-.37c1.43-2.24,1.43-10.73,0-13a2.16,2.16,0,0,1-.19-.37l-12.51-4.21a35.82,35.82,0,0,0,0,22.12Z" transform="translate(-34.1 -2.84)"/><path class="cls-4" d="M149,188.31l-.23-.12c-2.49-1.56-11.51-1.56-14,0l-.23.12-3.8,10.33a35.8,35.8,0,0,0,22,0Z" transform="translate(-34.1 -2.84)"/><path class="cls-4" d="M162,174c-2.92,1.27-9.59,9.62-10.34,13a1.6,1.6,0,0,1-.1.31l3.82,10.39a36,36,0,0,0,19.42-19.39Z" transform="translate(-34.1 -2.84)"/><path class="cls-4" d="M131.87,187.27a2.81,2.81,0,0,1-.1-.31c-.75-3.37-7.41-11.72-10.33-13l-12.8,4.3a36,36,0,0,0,19.42,19.39Z" transform="translate(-34.1 -2.84)"/><path class="cls-4" d="M134.51,140.8a1.27,1.27,0,0,1,.23.12c2.48,1.56,11.5,1.56,14,0a1,1,0,0,1,.23-.12l3.8-10.33a35.8,35.8,0,0,0-22,0Z" transform="translate(-34.1 -2.84)"/><path class="cls-4" d="M121.44,155.14c2.92-1.28,9.58-9.63,10.33-13a3,3,0,0,1,.1-.32l-3.81-10.39a36,36,0,0,0-19.42,19.4Z" transform="translate(-34.1 -2.84)"/><path class="cls-4" d="M127,163.14v-1.55a1.41,1.41,0,1,1,2.82,0v1.55h2.34v-1.55a1.41,1.41,0,1,1,2.82,0v1.55h2.6v-1.55a1.42,1.42,0,1,1,2.83,0v1.55H143v-1.55a1.42,1.42,0,1,1,2.83,0v1.55h2.6v-1.55a1.42,1.42,0,1,1,2.83,0v1.55h2.33v-1.55a1.42,1.42,0,1,1,2.83,0v1.55h2.8a20,20,0,0,1,.88-5.32c-2.31-1-8-2.81-18.4-2.81s-16.08,1.83-18.39,2.81a19.62,19.62,0,0,1,.87,5.32Z" transform="translate(-34.1 -2.84)"/><path class="cls-4" d="M156.45,166v1.55a1.42,1.42,0,0,1-2.83,0V166h-2.33v1.55a1.42,1.42,0,0,1-2.83,0V166h-2.6v1.55a1.42,1.42,0,0,1-2.83,0V166h-2.6v1.55a1.42,1.42,0,0,1-2.83,0V166H135v1.55a1.41,1.41,0,0,1-2.82,0V166h-2.34v1.55a1.41,1.41,0,1,1-2.82,0V166h-2.81a19.61,19.61,0,0,1-.87,5.31c2.31,1,8,2.81,18.39,2.81s16.09-1.82,18.4-2.81a20,20,0,0,1-.88-5.31Z" transform="translate(-34.1 -2.84)"/><path class="cls-1" d="M98.16,140.61a1.49,1.49,0,0,1-1.33-.93V91a1.33,1.33,0,0,1,.65-1.14l8.71-5.18a1.38,1.38,0,0,1,.68-.18,1.35,1.35,0,0,1,1,.49,1.34,1.34,0,0,1,.29.86V99l1.77-1c8.36-5,14-18.88,14.39-23.46a1.32,1.32,0,0,1,.64-1l13.38-8a1.27,1.27,0,0,1,.68-.19,1.32,1.32,0,0,1,1.31,1.51c-.74,6-4.59,16.83-9.14,23.41a95.81,95.81,0,0,1-8.71,10.65l13.3,12.74a1.46,1.46,0,0,1,.46,1.08,1.35,1.35,0,0,1-1.16,1.25,48.17,48.17,0,0,0-10.78,2.73,1.5,1.5,0,0,1-.47.08,1.31,1.31,0,0,1-.91-.36l-8-7.56a4.86,4.86,0,0,0-3.36-1.33,4.81,4.81,0,0,0-2.46.67l-1,.56v17.45a1.36,1.36,0,0,1-.41,1A49,49,0,0,0,99.31,140a1.31,1.31,0,0,1-1.15.66" transform="translate(-34.1 -2.84)"/><path class="cls-1" d="M184.24,138.82a1.32,1.32,0,0,1-1.12-.61,49.39,49.39,0,0,0-10.86-12.06,1.36,1.36,0,0,1-.48-.8l-1.38-7.61a50.25,50.25,0,0,0-11.71-5.89l-.82,4.78a1.34,1.34,0,0,1-.62.91,1.32,1.32,0,0,1-.69.2,1.27,1.27,0,0,1-.39-.06,48.19,48.19,0,0,0-7.6-1.68,1.33,1.33,0,0,1-1.14-1.45l3.26-33.85a22.22,22.22,0,0,1-5-12.5,1.33,1.33,0,0,1,.62-1.23,1.39,1.39,0,0,1,.71-.2,1.26,1.26,0,0,1,.67.19l26.67,15.82a2.62,2.62,0,0,1,1.26,1.79l9.89,52.68a1.32,1.32,0,0,1-1.3,1.57m-23.93-36.55a75.55,75.55,0,0,1,7.82,2.87l-2.72-15a1.49,1.49,0,0,0-1.51-1.27,1.55,1.55,0,0,0-1.53,1.29Z" transform="translate(-34.1 -2.84)"/></svg>