<svg xmlns="http://www.w3.org/2000/svg" viewBox="0 0 598 598.8"><title>reynirvidir</title><circle cx="415.5" cy="416.3" r="182.5" fill="#16067a"/><circle cx="415.5" cy="417.6" r="172" fill="#fff"/><path d="M521.9,350c-1.2,5.1-7.6,8.2-7,14.1s-2,13.8,2.5,18.4c9.8-.1,3.2-11.5,5.5-16.9,0-2.8,1.8-4.8,3.2-7.1,4.5,4.6,8.5,10.1,6.3,16.6-1.6,2.4-5,4.6-5.5,7.6-5.1,4.1-9.9,8.5-10.9,14.8s-1.2,13.1,2.2,18.1c3.5.4,5.3-3.4,6.6-5.7,0-5.9,6.6-6,9.8-9.1,2.9-1.2,5.7-3.8,8.8-3.5-2.9,6.6-3.4,14.1-10.5,19a20.6,20.6,0,0,0-14.6,6c.3,2.5.3,5.1,2.8,6.8l1.8.3c.7,3.2-4.7,6.3-.7,9.6,6.7.9,4.4-7.1,7.3-10.3,4.7-4.9,9.6-9.1,16.2-9.4.9,6.2-1.5,12.5-7,15.9-4.5,1.3-10.4-.4-13.3,4.6s-1,9.3-3.9,13.1c1,1.2-.6,3.4,1.5,4.1s2.6-2.9,4.8-3.1a87.5,87.5,0,0,1,16.2-4.3c-1.3,8.2-7.3,17-15.8,19.4l-5.7.3c-12.7,9.8-17.1,24.8-31.1,33.2-1.2.6-2.8.3-4.2.3-1.5-1.9-3.9-3.8-2.5-6.6,6.7-5.9,18-10.4,18-20.9a17.2,17.2,0,0,1-5-13.4c1-5.1,5.3-8.8,7.3-13.4,6.3,6.2,2.9,16,2.9,24,.1.9,1.2,1.5,1.8,2.1,6.7-2.6,7-10.6,8-16.9a26.9,26.9,0,0,0-5.7-17.6v-2.5c2.2-1.8,3.5,4.1,5,1.2.4-7.6-5.3-14.1-11.5-17.3-3.1-.7-5.7-3.2-8.8-2.8a8.7,8.7,0,0,1-8.5,6c-4.2.4-7.9-.7-11.5-1.8,4.7-3.4,5.5-12.2,13-10.3v-2.1c-5.8-3.4-7-12.6-14.7-12.1-2.5-6.3-7-13.1-3.8-20.4,10.1,6,7.6,19.3,17.5,26.5,6.3,6.3,12.4,14.1,21.6,12.3,3.2-6,.1-12.9-1.3-18.7-.9-3.5,2.6-2.2,3.1-5,0-4.9,1.6-8.5,0-13.1-7-5.7-13.9-13.4-12.6-22.9l1-1,9.2,8.8c1,.1,1.6-1.2,2.3-1.8,1.8-8.7-4.1-19.5,5-26.2A12.7,12.7,0,0,1,521.9,350Z" transform="translate(-0.9 -0.5)"/><path d="M319,348.2c.4,6.5-2.3,13.7,1.5,19.1,4.4-2.1,5.8-7.8,10.2-9.3,1,4.1-.4,8.7-1.5,12.8-2.2,6.2-12,8.2-10.5,15.9.9,3.2-.7,7.9,2.8,9.8l1.8.3c-1,7.1-6.3,16.2-.3,22.3,11.2-.4,18-10.4,24.8-18.8,2-7.8,5.1-15.1,12.3-20.7,2.3,6.8-.9,13.5-3.5,19.4-6,1.8-9.2,8.5-14.3,12.6,5.1,1.9,9.2,7.1,11.8,12.1l.7.7c-4.4,2.2-9.8,2.4-14.7,1-2.5-1.2-2.9-4-4.1-6-6.6.6-12,4.7-16.9,8.5-1,3.8-5.7,8.1-2,11.9,1-.1,1.9-1,3.2-.7s.6,1.6.3,2.5c-7.7,5.6-6,18.1-4.2,26.5.9,3.5,3.4,5.9,6.3,7.8,1-.3,2.2-.6,2.5-1.8-.1-8.4-3.4-17.3,2.8-24,1.3,6,9.2,10.4,6.7,17.9-.9,5.3-7.7,9.8-3.2,15.6,4.2,7.6,14,9.1,18,16.9-1.3,2.5-4.2,3.8-7,4.3-3.9-10.1-15.9-9.6-18.5-20.1L309.2,471c-7.2-.1-14.5-3.1-17.8-9.4l-2.2-8.8c7.3.4,14.3,1.6,19.7,6.6,2-1.2,1.9-4.3,1.3-6.3s.1-8.4-3.8-10.9c-5.4-6.2-14.9-3.5-19.3-11.3.1-3.2-1.8-5.7-1-9.3,4.2.6,8.9,1.2,11.5,5,5,4.6,5.1,13.2,13,14.4,4.1-4.7-6.1-9.7,1.8-12.3.4-1,1.9-1.9,1.3-3.5-4.1-9.1-14.9-2.1-19.6-10.1-3.5-4.3-3.2-10.1-5.5-14.8,6,.9,12.3,4.7,17.5,9.1,1.5,2.6,1,6.3,4.5,7.8,1.6.4,5.5,1,4.8-2.1.7-11,.4-23.7-10.5-29-.6-5.7-7.9-5.1-7.6-11.3s3.4-10.1,7.3-13.7c4.4,5.4,3.1,13.4,3.8,20.4a6.4,6.4,0,0,0,4.2,3.5c1.5,0,1.6-1.6,2.5-2.5,2-10.3,1.6-22.2-6.3-29.7a16.1,16.1,0,0,1,4.5-14.1Z" transform="translate(-0.9 -0.5)"/><path d="M512.8,346.9c-1.3,4,.6,7.9,2,10.9,1.9-2.4,4.8-5,5.5-8.1s-.4-7.5-3.1-10.3C515.6,341.8,513.7,344.1,512.8,346.9Zm2.3,6.3c0-3.1,1.5-6.5,1.5-9.8C516.6,346,516.8,350.3,515.2,353.2Z" transform="translate(-0.9 -0.5)" fill="#257524"/><path d="M313.4,348.7c.3-.9.7-2.9,2.5-2.5-.3-1.6-1.5-3.5-3.2-4-1.6,1.2-1.2,3.1-1.8,4.7C312.5,346.2,312.7,347.8,313.4,348.7Z" transform="translate(-0.9 -0.5)" fill="#257524"/><path d="M314.2,355c-2.2-1-1.6-4.6-3.2-6,.1,3.7,2,7.5,5.3,8.8l.4-10.3h-.7C315.3,350,315.8,352.9,314.2,355Z" transform="translate(-0.9 -0.5)" fill="#257524"/><path d="M500.8,359.3a19.8,19.8,0,0,0,10.2,16.2A21.8,21.8,0,0,0,500.8,359.3Zm8,11.6v.7c-2.9-1.5-4.1-5-5.3-7.8C506,365.6,506.1,369.3,508.9,370.9Z" transform="translate(-0.9 -0.5)" fill="#257524"/><path d="M526.4,380.4c1-4.1,7.7-6.9,4.2-11.8-1.2,2.6-2.5,5.6-4.5,7.5.7-3.2-1.6-7.6.7-10.3.6,1.6,0,3.7.6,5.3,1.3-1.3,1.9-3.1,2.9-4.6-1.5-1.8-2.2-4.4-4.2-5.3-3.1,5.4-1.8,13.4-1,19.4C525.7,381,526,380.3,526.4,380.4Z" transform="translate(-0.9 -0.5)" fill="#257524"/><path d="M328.2,362.4c-1.2,1.5-4.8,3.5-2.2,5-1.3,1.3-1.2,4.1-3.1,4.6s.1-1.9.3-2.8c-2.2,2.2-2.8,5.6-3.5,8.1,5.7-2.6,8-8.7,9.2-14.1Z" transform="translate(-0.9 -0.5)" fill="#257524"/><path d="M305.7,380.7c.4-5.3,1-12.5-1.8-16.9-2.5,2.5-3.5,5.6-4.5,8.8C300.4,375.7,301.9,380,305.7,380.7Zm-4.5-10.3c.6,0,.9.7,1.5,1.2s1.2-1.6,2-1.8a34.4,34.4,0,0,0-1.5,6.6c-1.2-.6-1.8-2.8-2-4.6Z" transform="translate(-0.9 -0.5)" fill="#257524"/><path d="M471.8,380.4l-.7,2.4c1.8,6,2.5,14.3,10.2,15.9C478.2,392.5,477.8,385.3,471.8,380.4Zm5.3,14.4c-1.8-2.4-2.3-5.6-3.5-8.5,2.3,1.5,2.5,5,3.8,7.5C477.3,394.1,477.5,394.7,477.1,394.8Z" transform="translate(-0.9 -0.5)" fill="#257524"/><path d="M350.2,399.4c2-.1,3.7-1.5,5.3-2.5,2-4.1,4.7-9.3,3.2-13.7C354.7,388.1,350.4,392.9,350.2,399.4Zm2-3.1c.3-3.2,3.6-5.1,4.2-8.2C357.1,390.9,354,394.2,352.3,396.3Z" transform="translate(-0.9 -0.5)" fill="#257524"/><path d="M540.4,399.1c-6.7,3.5-15.9,8.1-16.8,16.9,2.5-1,5.4-.9,8-1.5C537.9,411.4,540,404.5,540.4,399.1Zm-4.5,5.6c0,1.8-5.1,2.9-2,4.3l-6.7,4.3C529.9,410.7,532.4,406.7,535.9,404.7Z" transform="translate(-0.9 -0.5)" fill="#257524"/><path d="M299.1,417a11.6,11.6,0,0,0,8.3,0l-2-2.5c-.1-7.8-9-9.6-13.7-12.9l-1.3.6C292.6,407.5,294.2,413.2,299.1,417Zm-4.7-7.3c1.6-.6,2.8,2.2,4.2,2.8,1.3-1.9-1-3.1-.7-5h.7l1.8,6C297.8,414.2,296.9,410.9,294.5,409.7Z" transform="translate(-0.9 -0.5)" fill="#257524"/><path d="M480.6,421.6a20.6,20.6,0,0,0,9.5.4,8.8,8.8,0,0,0,4.8-7.1l-8.3-.7C483,415.6,482.5,419.2,480.6,421.6Zm11.8-5.6-9.3,3.5c2.2-2.8,6.7-1.9,9.3-4.6Z" transform="translate(-0.9 -0.5)" fill="#257524"/><path d="M339.7,415c-.9,2.5-1.3,5.4.3,7.8s8.3,1.5,11.2.3C348.5,419.4,345.5,413.6,339.7,415Zm2.5,6.6h-.7l-.3-3.8,4.1,1C343.3,418.9,341,419.7,342.2,421.6Z" transform="translate(-0.9 -0.5)" fill="#257524"/><path d="M529.6,434.7a42.8,42.8,0,0,1,7.7-2.1c4.4-2.2,6.4-7.2,7-12.1C537.9,422.3,529.6,427.5,529.6,434.7Zm10.1-9.1c-2.8,1.2-5,3.7-7.6,5.3,2.2-1.9,4.8-4.7,7.6-6Z" transform="translate(-0.9 -0.5)" fill="#257524"/><path d="M302.2,436.9c-3.2-5.6-6.9-13.5-14.3-13.8-.3,4.3,1.8,7.5,4.5,10.6A16.3,16.3,0,0,0,302.2,436.9Zm-10.8-6.8c.9.1,1.5,1.2,2.5,1v-4.3c.6,1.9,1.6,4.1,1.8,6.5-1.8-.1-2.9-1.8-4.2-2.5Z" transform="translate(-0.9 -0.5)" fill="#257524"/><path d="M521.9,465.4l8-.3c5.5-2.4,9.5-7.6,11.2-13.1a57.2,57.2,0,0,0-11.2,2.8C525.5,456.7,523.3,461.3,521.9,465.4Zm14.3-7.8c-4.4.7-7.9,3.8-11.8,5.7v-.7C528.3,461,532.2,457.2,536.2,457.6Z" transform="translate(-0.9 -0.5)" fill="#257524"/><path d="M499.1,466.9c.3,3.2,3.2,6,6,7.6,1-6.9,4.2-15.9,0-22.2C501.9,456.6,498.1,460.7,499.1,466.9Zm2.8,2.4h-.7c-.7-3.8,1.2-7.5,2.5-10.9,0,2.2-1.6,4.3-1,6.3l2.5-2.8C504.4,464.5,502.2,466.4,501.9,469.2Z" transform="translate(-0.9 -0.5)" fill="#257524"/><path d="M328.2,476l4.2-6.3c2.8-6-1.8-10.9-4.2-15.6C322.9,459.9,327.6,468.9,328.2,476Zm3.1-13.8c-.7,1.5-1,4-2.3,5.7-1.8-1.2-.6-4.1-1.5-6,1-.1.9,1.5,1.5,2.1S329.8,461.9,331.2,462.1Z" transform="translate(-0.9 -0.5)" fill="#257524"/><path d="M290.9,454.5l1.8,5.6c2.6,7.3,10.2,8.2,16.5,9.5.7-1.6,1.6-3.5.7-5.3C306.9,456.3,298.4,455.1,290.9,454.5Zm5.3,8.1c2.8-.7,4.2,1.2,6.7,1-.3-1.9-3.5-2.9-2.8-5.3,1,2.6,4.5,4.3,5.3,7.1Z" transform="translate(-0.9 -0.5)" fill="#257524"/><path d="M422,422.8l-4.2,13.7c-4.2,1.9-2.6-3.8-4.5-5.6.9-3.4-5.4-8.1.3-9.3A11.9,11.9,0,0,1,422,422.8Z" transform="translate(-0.9 -0.5)"/><path d="M447.6,437.5c.9,5.9-1,11.5-3.8,16.3-2.8-3.1-6.1-7.1-6.7-11l5.7-10.9C444.6,433.6,446.8,435,447.6,437.5Z" transform="translate(-0.9 -0.5)"/><path d="M399.3,449.2c-6.9,6.3-6.6,22.3-20.3,17.6-6-6.2-.9-14.6,1-20.9s5.1-9.6,9.8-13.4Z" transform="translate(-0.9 -0.5)"/><path d="M458.5,472.4c-1,1.5-1,3.5-2.2,5-2.9-6.9-8.8-13.5-9.5-21.2l5.3-13.5C459.5,449.8,460,461.9,458.5,472.4Z" transform="translate(-0.9 -0.5)"/><path d="M453.3,483c-2.2,4.8-5,10.3-9.9,13.1-6-9.1-10.1-19.7-16.8-29,1.2-6.8,5.8-12.1,8-18.4A95.8,95.8,0,0,1,453.3,483Z" transform="translate(-0.9 -0.5)"/><path d="M407.7,476c-.9.9-1.6,1.6-2.9,1.5-2.2-6-11.1-10.4-8-17.3,1.5-2.1,1.9-4.9,4.2-6.3C404.1,460.5,413.3,467.4,407.7,476Z" transform="translate(-0.9 -0.5)"/><path d="M395.5,470.4c3.9,5,7.9,10,10.8,15.4-6.9,2.2-14.3,6.3-22,3.2-5.1-4.6-6.9-11.2-8-17.6C381.9,469.5,389.5,470.7,395.5,470.4Z" transform="translate(-0.9 -0.5)"/><path d="M433.6,485.1c.4,5.4,10.2,13.1,1,16.3-3.2,1.5-6.6,3.7-10.5,2.8a97.4,97.4,0,0,0-14.3-21.9l.7-1.8c6.7.1,13.4-1.8,19.6-1Z" transform="translate(-0.9 -0.5)"/><path d="M420,503.2c.4,2.6-3.1,1.8-4.7,2.5-10.8.1-21.2-3.1-27.3-12.1,10.1,2.4,22.8-10.1,28.5,2.5Z" transform="translate(-0.9 -0.5)"/><polygon points="470.6 356.6 421.1 464.9 423.9 474.4 409.9 474.4 411.6 466.6 359.1 358.7 390.3 367.8 415.6 446.2 417.3 443.7 441.1 367.1 470.6 356.6" fill="#13007c"/><path d="M454.6,343.7c4.8-.1,7.3,5.6,12,6l.3-11c-2.5-3.5-5-7.6-3.5-12.6a1.9,1.9,0,0,1,2.5-1.8c5,10.1,3.6,22.7,7.3,32,1.2,1.6,2.9,2.4,4.2,3.2s5.7.7,7.4-.7c.3-3.2.7-7.5-.4-10.6-9.3-1.6-6.9-12.9-9.8-19.7,7.4-3.8,3.2-14.4,5-21.6-3.8-8.8-14.5-12.9-23.5-14.7-1,.3-2.6.7-2.5,2.1l.3,9.1c8.9,4.8,4.1,16,3.2,24.4.7,3.5-3.4,1.5-4.5,3.5C452.7,336,450.2,340.2,454.6,343.7Zm10.9-35.3a12.6,12.6,0,0,1,8,3.8c-.1,3.1.4,5.4-.7,8.2-2.8-1.5-6.6-1.3-8.5-4.3A19.4,19.4,0,0,1,465.5,308.4Z" transform="translate(-0.9 -0.5)" fill="#fd1a16"/><path d="M406,332.8l20.6.6c3.2-.4,4.4-3.2,5.3-5.9l1.5-26.2c.4-5.3-.3-10-3.5-13.8-5.1-4.7-13.6-2.6-20-3.1-3.4,2.2-2.5,7.8-2,11.6,2,.4,3.2,2.1,4.1,3.8.3,3.8-1.8,6.6-5.3,8.2-3.4,6.9,8,4.7,3.9,11.6C405.2,322.5,405.8,327.8,406,332.8Zm11.8-30.4a5.1,5.1,0,0,1,3.9-5.3c2.8,0,5.5,1.2,6.6,4-1.3,6.9,1.5,15.6-2.5,21.5-2.8-1-7.2,1-8.3-3.2-.9-1.8,0-3.7,1-5.3a7.8,7.8,0,0,0,3.8-2.8C424.5,306.2,416.9,306.5,417.8,302.4Z" transform="translate(-0.9 -0.5)" fill="#fd1a16"/><path d="M451.8,292.8c-2.3-4.9-8.5-6.5-14-6.6-2.9,3.2-1.6,8.2-2.5,12.3a9.8,9.8,0,0,1,5.7,4.9l-1.2,19.8c-.7,1.9-3.1,1.2-4.1,1.3-3.4,1.9-1.5,6.2-1.5,9.6,4.1,2.2,8.6,4.4,13.7,5,3.2-1.5,1.2-5.7,1.8-8.5-7.3-6.9-4.1-18.8-2.9-27.5C452.8,303,450.9,296.2,451.8,292.8Z" transform="translate(-0.9 -0.5)" fill="#fd1a16"/><path d="M459.6,281c1.9.6,4.4.8,6.3-.1s2.6-3.3,3.1-5.4l1.8-6.5c.6-2,.7-2.5,3-2.1l.6-2.3-7.2-2.1-.6,2.2c2.1.9,2,1.4,1.4,3.4l-1.9,6.7c-.3,1.2-.7,2.7-1.8,3.4a4.2,4.2,0,0,1-3.3.3,3.4,3.4,0,0,1-2.3-2.3,6.4,6.4,0,0,1,.4-3.5l1.8-6.6c.6-2,.7-2.6,3-2.1l.6-2.3-9.2-2.7-.6,2.3c2.1.9,2,1.3,1.4,3.4l-2,7.1c-.7,2.2-1.1,4.1.3,6.1A9.1,9.1,0,0,0,459.6,281Z" transform="translate(-0.9 -0.5)" fill="#fd1a16"/><path d="M493.7,289.4c-.9,1.5-1.3,2-2.9,1.3l-.4-.2-1.2,2,14,9,6.1-4.1-1.1-1.9c-3.5,1.5-6.3,1.9-9.7-.2-.5-.3-1.5-1-1.4-1.7a18.6,18.6,0,0,1,1.4-2.5l1.5-2.5.4.2c.7.4,1.7,1,1.7,1.9a5.6,5.6,0,0,1-.6,2.4l1.8,1.2,4.6-7.5-1.8-1.2a5.2,5.2,0,0,1-1.7,1.9c-.8.3-1.7-.4-2.3-.8l-.7-.4,1.1-1.7c.3-.5.9-1.7,1.5-1.9s1.9.6,2.4.9c2.6,1.7,3.7,4.3,3.8,7.4l2.1.2.7-6.5L499.2,276l-1.2,2,.5.4c1.3,1.2.8,1.8,0,3.1Z" transform="translate(-0.9 -0.5)" fill="#fd1a16"/><path d="M512.5,279.4a2.1,2.1,0,0,0-.6-2.9,4.2,4.2,0,0,0-2.8-.2l-3.5.6-.2,1.5,3.9,1.5C510.3,280.3,511.7,280.6,512.5,279.4Z" transform="translate(-0.9 -0.5)" fill="#fd1a16"/><path d="M475.3,280.4c-.8,1.9-1.1,2.4-3.3,1.6l-.9,2.1,9.2,4.2.9-2.1h-.3c-.5-.3-1.5-.9-1.6-1.5a4.1,4.1,0,0,1,.5-2l1.5-3.4c2.8,1.1,2.8,1.9,2,4.6l1.9.9,3.7-8.5-1.9-.9a6,6,0,0,1-1.5,1.9c-.7.6-1.6.1-2.3-.2l-.8-.3.9-2.1c.9-2,1-2.7,3.2-1.7s4.1,3.6,4.7,6.8h2.2V273l-14.5-6.7-.9,2.1c2.1,1.1,1.9,1.8,1.1,3.6Z" transform="translate(-0.9 -0.5)" fill="#fd1a16"/><path d="M387.1,263.2l4.5,5.2.4,2.8c.1.6.3,1.7,0,2.2a3.6,3.6,0,0,1-2,.9l.4,2.3,9.9-1.6-.4-2.3h-.3a2.9,2.9,0,0,1-2.1-.4,4.4,4.4,0,0,1-.6-2l-.5-3,2.6-5.9c.9-2.2,1.6-3.6,4-4.2l-.4-2.3-8.4,1.4.4,2.3c.4,0,2-.4,2.1.3a7.1,7.1,0,0,1-.6,2.1l-1.4,3.7-2.7-3.6-.4-.5a2.4,2.4,0,0,1-.4-.7c-.1-.8,1.5-.9,2-1.1l-.4-2.3-10.4,1.7.4,2.3C384.8,260.5,385.8,261.7,387.1,263.2Z" transform="translate(-0.9 -0.5)" fill="#fd1a16"/><path d="M524,308.9c-2.8,1.2-6.3,1.4-8.7-.8s-1-1.5.1-2.8l5.9-7.3c.4-.5,1-1.4,1.7-1.4a4,4,0,0,1,2.1,1l1.5-1.8-7.5-6.5-1.5,1.8c1.6,1.7,1.3,2.1,0,3.7l-5.7,7c-1.3,1.6-1.6,2-3.5.6l-1.5,1.8,11.6,10,6.5-3.3Z" transform="translate(-0.9 -0.5)" fill="#fd1a16"/><path d="M314.4,311c-1.5,1.2-1.9,1-3.7.3l-14.3-5.1-2.8,3.3,6.2,12.9c.9,2,1.7,3.4.3,5.5l1.7,1.5,5.6-6.7-1.7-1.5-.2.2c-.5.4-1.5,1.6-2.3,1a4.5,4.5,0,0,1-.7-1.1l-1-2,3.9-4.6,2,.8a7.5,7.5,0,0,1,1.4.7c.6.6-.5,1.9-.8,2.4l1.7,1.5,6.6-7.9-1.7-1.5Zm-14.2,6.1-2.7-5.3,5.4,2Z" transform="translate(-0.9 -0.5)" fill="#fd1a16"/><path d="M325.9,302l-.3.2a2.7,2.7,0,0,1-2,.8c-.6-.1-1.2-1-1.5-1.4l-6.9-8.5c-.4-.4-.4-.5,0-.9a4.6,4.6,0,0,1,3.1-.8,10.9,10.9,0,0,1,3.2.8l1-2-5.4-3.1-11.6,10.1,2,6,2.1-.7a12,12,0,0,1-.2-3.4,4.9,4.9,0,0,1,1.3-3c.4-.4.5-.3.8.2l6.9,8.5c.4.4,1.1,1.2,1.1,1.8a2.9,2.9,0,0,1-1.1,1.9l-.3.2,1.5,1.8,7.8-6.7Z" transform="translate(-0.9 -0.5)" fill="#fd1a16"/><path d="M437.1,273.3c-.7-.2-1.7-.5-2-1.1a4.4,4.4,0,0,1,0-2.1l1.5-9.8,6.3,16.3,3.4.6,2.2-14.1c.3-2,.5-2.6,2.8-2.4l.4-2.3-7.4-1.2-.4,2.3c2.3.5,2.2,1.2,1.9,3.2l-.9,6-4.6-12.1-8-1.3-.4,2.3c.7.2,1.7.5,2,1.1a4.4,4.4,0,0,1,0,2.1l-1.4,9.1c-.1.6-.2,1.7-.7,2.1a3.4,3.4,0,0,1-2.1.3l-.4,2.3,7.3,1.2Z" transform="translate(-0.9 -0.5)" fill="#fd1a16"/><path d="M551.7,347.9l.2.3,2-1.2-4.5-8-2,1.2c.7,1.2.9,2.4-.4,3.1s-3.8-.1-4.7-1.7c-1.8-3.3.9-6.2,3.6-7.8s6.8-3,8.6.1.5,5.9-.9,8.1l1.6,1.4,4.6-4.8-.9-1.6H558a11.2,11.2,0,0,0-1.3-4.9c-2.9-5.2-8.4-6.2-13.4-3.3s-7,7.9-4.1,13.1a11.1,11.1,0,0,0,2.2,2.7,14.3,14.3,0,0,0,2.2,1.4l-1.1,1.4,1.5,2.7,4.3-2.5C550,346.8,550.5,346.3,551.7,347.9Z" transform="translate(-0.9 -0.5)" fill="#fd1a16"/><path d="M543.2,313.3l-2.8-3.3-13.3,4.5c-2,.7-3.5,1.3-5.3-.4l-1.7,1.5,5.6,6.7,1.7-1.5-.2-.2c-.4-.6-1.4-1.8-.6-2.4a4.2,4.2,0,0,1,1.2-.6l2.1-.8,3.9,4.6-1.1,2a7.7,7.7,0,0,1-.9,1.3c-.7.6-1.7-.8-2.2-1.2L528,325l6.6,7.9,1.7-1.5-.2-.3c-1-1.7-.7-2.1.2-3.9Zm-8.2,5.7-2.8-3.3,5.5-2Z" transform="translate(-0.9 -0.5)" fill="#fd1a16"/><path d="M287.1,320.7l-1.9-1.2-3.9,6.5,1.9,1.2c1.4-2,1.9-1.7,3.6-.6l5,3.2-12.6-.4-4.3,7.1,1.9,1.2c.4-.6,1.1-1.4,1.7-1.5a4.1,4.1,0,0,1,1.9.9l7.6,4.9c.5.3,1.5.9,1.6,1.5a3.6,3.6,0,0,1-.6,2.1l1.9,1.2,3.9-6.5-1.9-1.2c-.4.6-1.1,1.4-1.7,1.5s-1.4-.6-1.9-.9l-8.1-5.2,17,.4,1.8-3-11.8-7.6C286.4,323.2,285.9,322.8,287.1,320.7Z" transform="translate(-0.9 -0.5)" fill="#fd1a16"/><path d="M551.7,362.3a3.3,3.3,0,0,1-.1-2.2c.3-.5,1.2-.8,1.8-1l8.3-3.3c.6-.2,1.6-.7,2.1-.4a3.9,3.9,0,0,1,1.3,1.9l2.2-.9-3.6-9.6-2.1.8v.2a3.2,3.2,0,0,1,.1,2.1c-.3.5-1.3.8-1.8,1l-8.3,3.3c-.6.2-1.6.7-2.2.4a3.9,3.9,0,0,1-1.3-1.8l-2.1.8,3.6,9.6,2.1-.8Z" transform="translate(-0.9 -0.5)" fill="#fd1a16"/><path d="M570.8,367.7l-2.5-8.5-2.2.7c.5,2.4-.1,2.6-1.9,3.1l-2.4.7-.7-2.3-2.5.8.7,2.3-3.7,1.2c-1.9.6-2.5.7-3.3-1.5l-2.2.7,2.7,9.1c.8,2.8,1.7,5.5,4.3,7.2a9.2,9.2,0,0,0,7.9.8,9.9,9.9,0,0,0,5-3.5,9.1,9.1,0,0,0,1.8-5.4A24.7,24.7,0,0,0,570.8,367.7Zm-2.8,6.2a8.2,8.2,0,0,1-4.3,2.8c-3.7,1.2-7.2.5-8.3-3.5a3.5,3.5,0,0,1-.2-1.6c.1-.4.7-.6,1.1-.7l4.6-1.4,1.2,4,2.5-.8-1.2-4,3-.9c1.6-.5,1.8-.2,2.3,1.5A5.1,5.1,0,0,1,567.9,374Z" transform="translate(-0.9 -0.5)" fill="#fd1a16"/><path d="M285.6,349.7a17.3,17.3,0,0,1-3.5,1l-7,1.5-.3-.8c-1-2.6-1.9-5.1-1.1-7.9l-2.1-.8-3.4,9.1,2.1.8v-.4c.2-.4.5-1.4,1.1-1.2s.7,1.2.9,1.6l2.4,5.7-3.2-1.2c-2-.8-2.3-.9-1.8-3.1l-2.1-.8-3.4,9.2,2.1.8c1-2.2,1.6-2,3.4-1.3L278,365c.6.2,1.6.5,1.9,1.2a3.6,3.6,0,0,1-.2,2.2l2.1.8,3.4-9.2-2.1-.8c-1,2-1.5,1.8-3.3,1.1l-2.1-.8-1-2.8,5.1-1a6,6,0,0,1,1.9-.3c.8.3.1,1.8-.1,2.4l2.1.8,3.8-10.2-2.2-.9A4.6,4.6,0,0,1,285.6,349.7Z" transform="translate(-0.9 -0.5)" fill="#fd1a16"/><path d="M366.6,267.7l2.3,8.8c.5,2,.6,2.6-1.5,3.3l.6,2.3,9.1-2.5-.6-2.3c-2.1.4-2.3-.2-2.8-2.1l-.7-2.7,2.3-.6c3.7-1,7.6-3,6.4-7.8a5.4,5.4,0,0,0-4-4,11.4,11.4,0,0,0-5.3.6l-9.3,2.6.6,2.3C365.9,265.2,366.1,265.7,366.6,267.7Zm4.5-3.5a3,3,0,0,1,1.5-.8,2.9,2.9,0,0,1,3.9,2.1,3.3,3.3,0,0,1-.5,2.8,6.1,6.1,0,0,1-3,1.5l-.7.2-1.2-4.4C371.1,265.2,370.9,264.6,371.1,264.2Z" transform="translate(-0.9 -0.5)" fill="#fd1a16"/><path d="M416.8,272h-.4c-2.1-.2-2.3-.8-2.3-2.8V266h1.5l5.8,8.5H428v-2.3c-2-.2-2.4-.8-3.4-2.3l-3.2-4.4a5.5,5.5,0,0,0,4.7-5.3,4.7,4.7,0,0,0-3.1-4.5,16,16,0,0,0-5.3-.8l-10.5-.2v2.3h.3c2.1.1,2,.8,2,2.7l-.2,9.3c0,2-.1,2.5-2.2,2.6h-.2v2.3l10,.2Zm-2.2-14.1a3.7,3.7,0,0,1,2.1-.4,4.6,4.6,0,0,1,2.7.7,3.2,3.2,0,0,1,1.2,2.2,2.9,2.9,0,0,1-1.9,2.5,8.2,8.2,0,0,1-3.5.4h-1.1v-4.1C414.4,258.8,414.3,258.2,414.6,257.9Z" transform="translate(-0.9 -0.5)" fill="#fd1a16"/><path d="M327.5,288.2a11.9,11.9,0,0,1,.3-3.4,4.9,4.9,0,0,1,1.8-2.7c.5-.3.6-.2.8.3l5.4,9.6a4,4,0,0,1,.7,2c-.1.7-.8,1.3-1.4,1.6l-.3.2,1.1,2,8.8-5.2-1.1-2-.3.2a2.7,2.7,0,0,1-2.1.4c-.5-.2-1-1.2-1.3-1.7l-5.4-9.6c-.3-.5-.4-.6.1-.9a4.6,4.6,0,0,1,3.2-.3,11,11,0,0,1,3,1.4l1.4-1.8-4.8-4-13.2,7.8.9,6.3Z" transform="translate(-0.9 -0.5)" fill="#fd1a16"/><path d="M349.1,279.8a13,13,0,0,0,4.5-.2l3.2-.5c1.2-.2,3-.6,3.5.8s-1,3.1-2.4,3.7c-3.1,1.3-6.2,0-8.6-2.1l-1.7,1.5,4.8,5.8,1.5-.6v-1.4a8.3,8.3,0,0,0,5.2-.5c3.7-1.6,6.3-5.4,4.7-9.5a4.8,4.8,0,0,0-3.4-3.1,16.1,16.1,0,0,0-4.6.2l-1.9.2-1,.2c-1,.1-3,.6-3.6-.7s.9-2.6,2.1-3.1a5.9,5.9,0,0,1,3.6-.2,10.1,10.1,0,0,1,3.1,1.5l.4.2,1.6-1.5-3.8-4.7-1.5.6v1a8.2,8.2,0,0,0-4.7.4c-3.3,1.4-5.7,4.9-4.3,8.6A4.9,4.9,0,0,0,349.1,279.8Z" transform="translate(-0.9 -0.5)" fill="#fd1a16"/><path d="M397.5,284.5l4.4-3.7-5.7-2.9c.1,3.4-1.5,6.8-1.5,7.3-1.6.9-3.5.9-5.3,1.3-3.5.4-3.4,4.3-4.2,6.8v5.3c.7,1.2,1.9,1.3,3.2,1.3,4.4,3.8,1.9,11.3,2,15.9,3.5,10.4-12.3,12.2-6.7,22.9,5.8-1,10.5-4.6,16.9-4.1,3.4-2.2,2-6.9,2.3-10.6-1.3-2.5-5-1.5-5.8-4.7,1.9-7.1-3.5-18.4,4.8-21.5,4.2-2.2,2.3-7.9,2.8-11.6C403.5,283.1,399.7,286.4,397.5,284.5Z" transform="translate(-0.9 -0.5)" fill="#fd1a16"/><path d="M380.4,288.7c-4.5,1-10.8,1.5-12.3,6.3.4,3.2-1.6,9,3.1,10.1-2,9-4.1,18.2-7.6,26.2l-.7-.7c0-8.4-5.1-19.3,1.8-25.7,1.5-3.1.3-6.8-.4-9.8-5.5-.7-9.9,3.4-14.6,6l-.7,10.6c.7,2.4,2.8-.1,4.5.6s1.6,1.9,2.5,2.9c1.5,8.2,2.9,16.5,2.8,25.3-3.5,3.5-2.3,9-1,13.1,5-1.6,9.5-5.6,13-9.6.1-3.5,1.3-7.2-1.2-10.1l7.4-26.9c.3-4.4,6-4.1,6.3-8.4v-5.3c-.6-.9-.3-2.2-.3-3.2A2,2,0,0,0,380.4,288.7Z" transform="translate(-0.9 -0.5)" fill="#fd1a16"/><path d="M338.4,539.6a9.1,9.1,0,0,0-3.4-3.7c-3.2-1.9-7.4-1.4-9.2,2.6a6.3,6.3,0,0,0-.1,5.1,14.7,14.7,0,0,0,3.1,3.8l2.5,2.4c.9.9,2.4,2.1,1.7,3.7s-2.9,1.4-4.3.6c-3-1.7-4.1-5.4-4.1-9l-2.2-.4-1.1,8.4,1.5.9.9-1.1a9.3,9.3,0,0,0,3.8,4.2c3.6,2.1,8.1,1.6,10.1-2.9a6.2,6.2,0,0,0,0-5.2,18.4,18.4,0,0,0-3.1-3.8l-1.4-1.5-.8-.8c-.8-.8-2.5-2.2-1.9-3.6s2.5-1.1,3.7-.5a6.6,6.6,0,0,1,2.5,2.9,13.1,13.1,0,0,1,.9,3.8v.5l2.1.3.9-6.7-1.5-.9Z" transform="translate(-0.9 -0.5)" fill="#fd1a16"/><path d="M350.7,545l-2.6-1.1v.2c-.7,1.5-1.3,2.5-2.7,3.1a3.7,3.7,0,0,1-2.4.2l-.8,2.3,1.8.8-2.5,7.3c-.5,1.4-1,2.7-.6,4.2a4,4,0,0,0,2.5,2.6,6.6,6.6,0,0,0,6.5-.4l-.9-2.8c-.7.4-2.1.9-2.8.6s-.6-1.9-.2-2.8l2.3-6.8,3.6,1.6.9-2.7-3.6-1.6Z" transform="translate(-0.9 -0.5)" fill="#fd1a16"/><path d="M363.1,554.7c-4.4-1.4-8,.6-9.3,5.6a9.4,9.4,0,0,0,.8,6.9,8.4,8.4,0,0,0,4.6,3.5,7.2,7.2,0,0,0,5.9-.3,8.2,8.2,0,0,0,3.6-5.2,9.6,9.6,0,0,0-.7-7A8.4,8.4,0,0,0,363.1,554.7Zm.7,9c-.5,2-1.5,4.7-3.8,4s-1.9-3.7-1.4-5.7,1.5-4.9,3.8-4.2S364.4,561.6,363.8,563.7Z" transform="translate(-0.9 -0.5)" fill="#fd1a16"/><path d="M379.8,557.8c.2-.8.3-2.3,1.3-2.1s.5.4.6.8a1.8,1.8,0,0,0,1.3,1.3,2,2,0,0,0,2.5-1.6c.4-2.2-1.5-3.3-3-3.6a6.8,6.8,0,0,0-4.9.7c-1.8,1-2.3,2.5-2.7,4.6v.6l-2.2-.5-.5,2.8,2.2.5-1.4,7.4c-.4,2.2-.5,2.7-2.7,2.4l-.5,2.6,9.2,2.2.5-2.6H379c-2.1-.5-1.9-1.3-1.5-3.4l1.4-7.4,2.4.6.5-2.8-2.4-.6Z" transform="translate(-0.9 -0.5)" fill="#fd1a16"/><path d="M398.1,575.3a8.5,8.5,0,0,1,.1-1.9l.6-5.2c.2-1.6.3-2.9-.7-4.2a4.7,4.7,0,0,0-3.3-2,7.5,7.5,0,0,0-4.8,1.1v-1.4l-1.4-.2h-5l-.3,2.6h.2c2,.5,1.8,1.2,1.6,3.2l-.4,3.9c-.2,2.2-.3,2.8-2.5,2.7l-.3,2.6,8.3,1.2.3-2.6h-.2c-1-.5-1.3-.7-1.1-2.6l.7-6.1a4.4,4.4,0,0,1,3.1-1.2c1.3.2,1.2,1.6,1,2.6l-.6,5.4c-.2,1.5-.2,2-1.8,2.1l-.3,2.6,8.1,1.1.3-2.6-.5-.2C398.7,576.2,398.2,576.1,398.1,575.3Z" transform="translate(-0.9 -0.5)" fill="#fd1a16"/><path d="M416.3,576.9c-.5,0-.4-1.1-.4-1.5l.2-6.2c.1-1.9-.1-3.5-1.6-4.7a9.1,9.1,0,0,0-8.5-.3,4.1,4.1,0,0,0-2.1,3.4,2.2,2.2,0,0,0,2,2.4,2.2,2.2,0,0,0,1.8-.9,3,3,0,0,0,.4-1.5,1.1,1.1,0,0,1,.3-.9,2,2,0,0,1,1.4-.4c.5,0,1.3.2,1.6.7a4.6,4.6,0,0,1,.2,2v.8c-3.1.2-8.4,1-8.5,5.6a4.3,4.3,0,0,0,4.3,4.6,7,7,0,0,0,4.5-1.5,3.8,3.8,0,0,0,3,1.8,4.9,4.9,0,0,0,3.6-1.5l-1.5-2.2C416.9,576.6,416.5,576.9,416.3,576.9Zm-4.9-1.5a3.1,3.1,0,0,1-2.3,1,1.5,1.5,0,0,1-1.3-1.7c.1-1.9,2.4-2.3,3.7-2.5Z" transform="translate(-0.9 -0.5)" fill="#fd1a16"/><path d="M434.3,558.2l-.7-2.1-5.2,2a32.1,32.1,0,0,0-2.8-2.2l-3.3.6c1.3,1.1,2.4,2.1,3.1,2.7l-4.9,1.9.7,2.1,5.8-2.2a10.1,10.1,0,0,1,1.7,2.4,2.6,2.6,0,0,0-1.1-.4c-4.3.2-7.2,3.4-7,8.6A8.9,8.9,0,0,0,423,578a7.6,7.6,0,0,0,5.4,1.7,7.5,7.5,0,0,0,5.5-2.4,9,9,0,0,0,2-6.2c-.1-4.7-2.3-7.9-5.7-11.3Zm-4,9.7a10.9,10.9,0,0,1,.5,3.5c.1,2.1-.2,5-2.5,5.1s-2.8-2.8-2.8-4.9.1-5.2,2.5-5.3C428.7,566.3,429.5,567,430.3,567.9Z" transform="translate(-0.9 -0.5)" fill="#fd1a16"/><path d="M455.1,573.7l-1.1.2c-1.4.1-2.3,0-2.5-1.7l-2.1-16.8-1.4.2h-.3a23.3,23.3,0,0,1-6.4,2h-.2l.3,2.6h1.1c.6,0,2-.2,2.3.3a5.6,5.6,0,0,1,.4,1.8l1.2,10c.1.5.3,1.5,0,2s-2.2,1.1-2.9,1.2h-.2l.3,2.6,11.9-1.9-.3-2.6Z" transform="translate(-0.9 -0.5)" fill="#fd1a16"/><path d="M471.7,552.4a7.4,7.4,0,0,0-7.1-1.3c-3.9,1.1-7.6,4.8-6.5,9.8s4.5,6.2,8.1,5.1a8,8,0,0,0,4.6-3.2c.7,3,.3,6.9-2.8,7.8a3,3,0,0,1-1.8,0c-.3-.1-.4-.4-.5-.6s-1.4-2.4-2.9-1.9a2.5,2.5,0,0,0-1.6,3c.7,3.2,5.1,3,7.3,2.4a9.6,9.6,0,0,0,6.2-5c1.3-2.7,1.1-6,.5-9S473.6,554,471.7,552.4Zm-4.9,10.2c-2.1.6-3.6-1-4-3.2s.1-4.6,2.4-5.3,3.7.9,4.2,3.3S469.1,561.9,466.9,562.6Z" transform="translate(-0.9 -0.5)" fill="#fd1a16"/><path d="M489.9,552.5a5.5,5.5,0,0,0,1.5-5.4c-1.4-4.1-5.9-3.8-8.9-2.4a10.2,10.2,0,0,0-4.3,3.6,5.8,5.8,0,0,0-.8,5.1c.5,1.5,1.8,2.2,3.1,1.6a2.6,2.6,0,0,0,1.5-3.2c-.3-.9-.9-1.1-1-1.5a1.4,1.4,0,0,1,.2-.9,3.6,3.6,0,0,1,1.7-1.7c1.5-.7,3-.4,3.6,1.4a3.6,3.6,0,0,1-.2,3,5,5,0,0,1-2.2,1.7l-.9.4.9,2.6.3-.2.6-.3a5.5,5.5,0,0,1,3.2-.6,3.7,3.7,0,0,1,2.2,2.4,3.9,3.9,0,0,1-2.1,5.2,3.6,3.6,0,0,1-2.5.3,1.1,1.1,0,0,1-.7-.6,1.5,1.5,0,0,1-.1-.5,2.1,2.1,0,0,0-.1-.8,2.1,2.1,0,0,0-3-1.2,2.9,2.9,0,0,0-1.2,3.7,4.5,4.5,0,0,0,4.1,2.8,9.7,9.7,0,0,0,4.7-1,12.9,12.9,0,0,0,5.1-4.3,7.3,7.3,0,0,0,.9-6.4A4.5,4.5,0,0,0,489.9,552.5Z" transform="translate(-0.9 -0.5)" fill="#fd1a16"/><path d="M504.2,542.6a9.2,9.2,0,0,0-4,4.3c-1.2-2.9-1.6-6.9,1.4-8.6a1.8,1.8,0,0,1,1.8-.2,2.7,2.7,0,0,1,.6.9,2,2,0,0,0,2.9.9,2.6,2.6,0,0,0,1.1-3.3,3.3,3.3,0,0,0-3.1-1.8,9.3,9.3,0,0,0-4.6,1.3c-5.7,3.3-6.1,9.4-3.4,15.5s6.6,8.3,11.9,5.2c3.7-2.2,6.4-6.3,4.2-11.1S507.5,540.7,504.2,542.6Zm3.2,11.3c-2,1.2-3.7,0-4.6-2.1s-.7-4.5,1.3-5.7,3.6,0,4.5,2.1S509.6,552.6,507.5,553.9Z" transform="translate(-0.9 -0.5)" fill="#fd1a16"/><path d="M361.3,535.3l-.5,2.6,3.6,2.1,3.9-6.8c1.4-2.4,1.7-3.4,4.2-2.5l.5.2,1.8-3.1-10.7-6.2-1.8,3.1c1.6.9,2.6,2.2,1.4,4.3a5.3,5.3,0,0,1-7.1,1.9c-4.4-2.6-2.7-8.5-.3-12.8s6.9-9.6,11.1-7.2,4.3,6.9,3.8,10.9l2.9.4,3-10-2.1-1.2-1.1.8a13.2,13.2,0,0,0-4.7-5.1c-6.9-4-14.6-.6-19.1,7.2s-4,15.9,2.8,19.8a13.1,13.1,0,0,0,4.5,1.5A18.9,18.9,0,0,0,361.3,535.3Z" transform="translate(-0.9 -0.5)" fill="#fd1a16"/><path d="M403,544.2c-2.4-1.2-2.3-1.9-2.7-4.9l-2.6-23.5-5.8-1.3-11.8,18.4c-1.8,2.8-3.1,5-6.4,4.6L373,541l11.5,2.7.8-3.5h-.4c-.9-.4-2.9-.9-2.6-2.4a7.8,7.8,0,0,1,.9-1.9l1.8-3,8,1.9.3,3.4a13.5,13.5,0,0,1,0,2.5c-.3,1.3-2.6.7-3.4.7l-.8,3.5,13.5,3.1.8-3.5Zm-16-14.9,4.8-7.7.8,9Z" transform="translate(-0.9 -0.5)" fill="#fd1a16"/><path d="M434.3,540.8l-4.7-6.7a8.2,8.2,0,0,0,6.2-8.4,7.3,7.3,0,0,0-4.5-6.9,19.6,19.6,0,0,0-7.3-.9l-14.4.3v3.6h.5c2.9.1,2.8,1.1,2.9,4.1l.3,14.5c.1,3.1,0,3.9-2.9,4.2H410v3.6l13.7-.2v-3.6h-.5c-2.9-.2-3.2-1.1-3.2-4.2v-5.1h2l8.4,12.8,8.9-.2v-3.6C436.4,544,435.8,543,434.3,540.8ZM426,530.2c-1.4.8-3.2.7-4.7.7h-1.5v-6.3c0-.5-.1-1.5.3-1.9s1.9-.7,2.9-.7a5.7,5.7,0,0,1,3.8,1,5,5,0,0,1,1.8,3.3A4.5,4.5,0,0,1,426,530.2Z" transform="translate(-0.9 -0.5)" fill="#fd1a16"/><path d="M444.9,523.2l.9,3.8-3.2.7.9,4.1,3.2-.7,1.4,6c.7,3.1.8,4-2.2,5l.8,3.5,12.4-2.9c3.9-.9,7.5-1.9,9.9-5.8s2.4-7.9,1.4-12.3a17.6,17.6,0,0,0-4.4-8.4,12.2,12.2,0,0,0-7.2-3.7c-2.1-.2-5.3.6-7.4,1l-11.5,2.7.8,3.5C443.9,519.3,444.2,520.2,444.9,523.2Zm8.5-6a6.3,6.3,0,0,1,6.3,1.7c1.9,1.8,2.9,4.6,3.5,7.2,1.4,6,.3,11.4-5.1,12.6a4.1,4.1,0,0,1-2.2.1c-.6-.2-.7-1.2-.8-1.8l-1.7-7.4,5.5-1.3-.9-4.1-5.5,1.3-1.1-4.9C450.6,518,451.1,517.8,453.4,517.2Z" transform="translate(-0.9 -0.5)" fill="#fd1a16"/><path d="M487.5,527.8h-.3c-.8.3-2.2.5-3,0s-1.2-2-1.5-2.9l-5.1-13.3c-.3-.9-1.1-2.5-.7-3.4a4.7,4.7,0,0,1,2.5-1.9l-1.3-3.4-12.8,4.9,1.3,3.4h.3c.8-.2,2.2-.5,2.9,0s1.2,2,1.5,2.9l5.1,13.3c.3.9,1.1,2.5.7,3.4a4.6,4.6,0,0,1-2.4,1.9l1.3,3.4,12.8-4.9Z" transform="translate(-0.9 -0.5)" fill="#fd1a16"/><path d="M11.4,66.6c10-13.1,23-25.1,33.1-33.9l7.8,5.5c3.5,2.5,6.5,1.4,8.7-.3C85.7,18.8,119.5,5.8,160.8,6h1.1c41.3-.2,75.9,12.6,99.8,31.9a6.7,6.7,0,0,0,8.7.3l7.8-5.5c10,8.8,23,20.8,33.1,33.9-4.6,9.7-7.2,18.3-7.7,27.9-1.7,34.1,13.8,65,13.9,99,.2,59.2-35.8,103.5-78.1,124.4-29,14.3-66.3,28.6-78,44.8h0c-11.7-16.2-49.1-30.5-78-44.8C41,297,5,252.6,5.2,193.5c.1-33.9,15.6-64.9,13.9-99-.5-9.5-3.1-18.2-7.7-27.9Z" transform="translate(-0.9 -0.5)" fill="#fff" fill-rule="evenodd"/><path d="M7.3,62.6C17.5,49.1,30.9,36.9,41.1,27.9l8,5.6c3.6,2.5,6.6,1.4,8.9-.3C83.3,13.6,117.9.4,160.1.5h1.2c42.2-.2,77.6,12.9,102.1,32.6a6.8,6.8,0,0,0,8.9.3l8-5.6c10.3,9,23.6,21.3,33.8,34.7-4.8,9.9-7.4,18.8-7.9,28.5-1.7,34.9,14.1,66.5,14.3,101.3.2,60.6-36.7,106-79.9,127.3-29.6,14.6-67.9,29.2-79.8,45.8h0c-12-16.6-50.2-31.2-79.8-45.8C37.6,298.3.7,252.9.9,192.4c.1-34.7,16-66.4,14.3-101.3-.5-9.8-3.1-18.6-7.9-28.5Zm11,106.8c2.6-14.7,6.6-29.1,9.2-43.7a163.7,163.7,0,0,0,2.9-27.9A89.9,89.9,0,0,0,24.7,65h0A244,244,0,0,1,42.4,47l10.8,8.8A111.1,111.1,0,0,1,62.6,48c5.1-3.8,10.3-7.4,15.7-10.8A128.9,128.9,0,0,1,98.6,26.8a145.3,145.3,0,0,1,20.6-6.6,165.4,165.4,0,0,1,23-3.8,178.4,178.4,0,0,1,18.8-.8A199.6,199.6,0,0,1,186,17.2a157.6,157.6,0,0,1,22.4,4.7,132.2,132.2,0,0,1,47.9,24.7c3.8,3,7.2,6.5,10.8,9.8L279,47a237.7,237.7,0,0,1,17.6,18h0A89.1,89.1,0,0,0,291,97.8c.2,16.2,3.4,31.7,6.9,47.4,2,9.1,4.2,18.1,5.7,27.2a121.2,121.2,0,0,1,1.8,20.1,125.3,125.3,0,0,1-8.7,46.5,120.1,120.1,0,0,1-17.5,30.5,129.8,129.8,0,0,1-27.7,26.3c-10,7.1-20.7,12.1-31.8,17.3-9,4.2-17.9,8.3-26.8,12.6-11.3,5.5-22.2,11.4-32.3,19a123,123,0,0,0-15.2-10c-6.5-3.8-13.2-7.2-20-10.4-8.9-4.3-17.8-8.4-26.7-12.5S81.4,303.4,73.3,298a131.1,131.1,0,0,1-31.1-28.7,120.2,120.2,0,0,1-17.5-30.5A122.7,122.7,0,0,1,16,197.5a130.2,130.2,0,0,1,2.2-28.1Z" transform="translate(-0.9 -0.5)" fill="#cc2b31" fill-rule="evenodd"/><path d="M160.7,269.9a81.3,81.3,0,1,0-81.3-81.3,81.3,81.3,0,0,0,81.3,81.3Z" transform="translate(-0.9 -0.5)" fill="#cc2b31" fill-rule="evenodd"/><path d="M160.7,115.9a72.8,72.8,0,1,1-72.8,72.8,72.8,72.8,0,0,1,72.8-72.8Z" transform="translate(-0.9 -0.5)" fill="#d99a3b" fill-rule="evenodd"/><path d="M160.7,112.3a76.4,76.4,0,1,1-76.4,76.4,76.4,76.4,0,0,1,76.4-76.4Zm4.4,6,5.9.6h0a55.6,55.6,0,0,1-10.4,16.8c-4.5-4.8-7.8-10.8-10.4-16.8h0l5.9-.6v8.2h8.9v-8.1Zm11.7,1.7a70.5,70.5,0,0,1,34.3,19.4h0a41.3,41.3,0,0,1-11.6,5.5,46.4,46.4,0,0,1-13.2,1.8,36.4,36.4,0,0,1-12-1.9,32.1,32.1,0,0,1-9.3-5.2,65.2,65.2,0,0,0,11.9-19.6Zm38.2,23.7a70.6,70.6,0,0,1-4.9,95.3h0a42.7,42.7,0,0,0-6.5-4.8c6.6-6.5,10.3-13.3,10.4-22.6a31.8,31.8,0,0,0-9-23.1,32,32,0,0,0,9-23.1,29.9,29.9,0,0,0-5.9-17.7h0a53.2,53.2,0,0,0,6.9-4Zm-9.2,99.2a70.6,70.6,0,0,1-90.1.2h0a31.4,31.4,0,0,1,9.9-6.1,34.3,34.3,0,0,1,12.6-2.2,33.9,33.9,0,0,1,11.7,2,38.1,38.1,0,0,1,10.8,6.6c4.3-2.9,8.5-5.6,13.5-7.2a32.1,32.1,0,0,1,10-1.5,32.6,32.6,0,0,1,11,1.9,33.3,33.3,0,0,1,10.8,6.3Zm-94.4-3.7a70.6,70.6,0,0,1-5.1-95.5h0a51.7,51.7,0,0,0,5.4,3.3,30.9,30.9,0,0,0-6.2,18.4c-.1,8.5,2.7,16.9,8.8,23.1a31.7,31.7,0,0,0-8.8,23.3c.2,9.7,4.1,16.7,11.1,23.3a41,41,0,0,0-5.1,4.1Zm-1.2-99.9A70.5,70.5,0,0,1,144.5,120h0a64.5,64.5,0,0,0,11.9,19.6c-6.4,5.2-14,7.2-22.1,7.1a46.6,46.6,0,0,1-10.6-1.3,43.2,43.2,0,0,1-13.5-6Zm98.1,26.2a23.6,23.6,0,0,0-5.8-15.6,51.4,51.4,0,0,1-16.2,2.5,41.3,41.3,0,0,1-14.7-2.5,37.9,37.9,0,0,1-10.9-6.4c-7.6,6.4-16.8,9-26.5,8.8a50.6,50.6,0,0,1-17-3,24.9,24.9,0,0,0-6,16c-.1,7.8,2.5,14.7,8.3,20.1h80.3a25.9,25.9,0,0,0,8.4-20ZM138.2,229a40,40,0,0,1,15.3,3,36,36,0,0,1,7.3,4.2,44.8,44.8,0,0,1,9.8-5,38.9,38.9,0,0,1,13.4-2.3,38.2,38.2,0,0,1,13.8,2.6c6.6-5.5,10.2-11.3,10.4-20a25.8,25.8,0,0,0-8.4-20H119.6a25.5,25.5,0,0,0-8.3,20.2c.3,9.2,4.2,14.4,10.6,20.6a40.4,40.4,0,0,1,16.3-3.3Z" transform="translate(-0.9 -0.5)" fill="#8f2c30" fill-rule="evenodd"/><path d="M40,105.5c7.9,15,11.5,41.2,12.6,61.7.1,2.8-.1,6.3,1.1,7.4a4.1,4.1,0,0,0,6.9-1.6c2.2-5.9,4-7.5,6.7-12s2.4-7-.2-11.4-3.6-13.8-2.9-20.6c.3-2.8,3.1-6.1,5.7-4.8s3.9,6.8,4.6,10.5c.3,1.5-.4,4-.4,5.5,0,3.6,2.4,5.7,4.4,3.6s6.4-5.9,10.1-9.3-1.7-5.9-2.9-9.1c-2.5-6.2-5.3-15.8-10.5-16.4,2-5.9,3.4-11.1-.6-21.1S63,77.5,57.6,79.4,50.5,87,47,90.9c-1.8,2.1-4.8,3.9-6.7,6.1a9.3,9.3,0,0,0-1.8,3.7c-.2,1.7.7,3.3,1.5,4.8ZM57,95.2c-2.3.8-4.1,4.3-3.9,6.7s1.6,4.4,5,7.3a2,2,0,0,0,3-.4,20.8,20.8,0,0,0,1.2-10.1c-.5-2.8-3.5-4.2-5.3-3.6Z" transform="translate(-0.9 -0.5)" fill="#cc2b31" fill-rule="evenodd"/><path d="M77.8,69.7c12.6,9.9,18.7,26.2,21.2,47.2.7,6.1,3.9,7.2,6.7,4.8a51,51,0,0,1,23.7-12c1.6-.4,3-3.2,2.1-4.6s-1.5-6.7-2.1-9.5c-.2-1.1-2.1-1.7-3.4-.4-3.7,3.7-6.8,7.2-11.4,7.4-7.1.2-8-7-6.1-9.7s2.5-1.9,5.3-2.7,1.7-3,.8-4-2.4-4.6-2.9-7.6c-.3-1.4-2.7-1.9-3.6-.8s-5.1,3.9-7.4,3.2c-4.3-1.5-4.9-5.9-3.6-9.1s5.5-4.5,8.4-5.5,4.6-3.1,3.8-5.1a41,41,0,0,1-3.2-10.1c-.5-2.9-3.4-3.2-5-1.9C94,55.1,85.2,59.4,77.2,62.8c-2,.9-3.5,3.7.6,6.9Z" transform="translate(-0.9 -0.5)" fill="#cc2b31" fill-rule="evenodd"/><path d="M117.1,48.9c-.1-3.2,1.1-6.3,3.6-6.7a113.2,113.2,0,0,0,14-3.6,3.9,3.9,0,0,1,5,4c-.5,3.6-1.8,9.9.6,12.4s7.8,1.8,9.2-.8.7-7.6,1.7-11.9c.6-2.4,1.5-6.4,5.7-6.1,2.4.2,6.8-.1,9,.2s3.3,3.2,1.7,6.3c-8.5,16.3-12,36-10.5,55.5.2,3.1-.1,6.1-4.6,6.3s-8.7,0-11.1.6-4.5-3.3-3.4-5.2c2.6-4.5,3.3-13.8,3.4-18.9,0-2.9-.7-7.6-3.6-8.4-11.4-3-20.4-11.3-20.8-23.7Z" transform="translate(-0.9 -0.5)" fill="#cc2b31" fill-rule="evenodd"/><path d="M175.6,43.4c4.8,17.9,4.1,37.5-4.2,54.9-.9,2-2,6.3,1.7,6.3a26.8,26.8,0,0,1,11.3,2.1c1.5.6,3.8-1.2,3.6-3.4-.5-5-1-11.2-.6-16s6.3-5.2,8-1.3,2.7,11.4,2.9,17.2c.1,2.1,0,6.7,2.7,7.5a45.6,45.6,0,0,1,8.6,3.6c3,1.7,5.2-.7,4.8-3.6-2.6-20.2-2.7-38.4,3.6-57.4,1.2-3.8,1.3-5.5-2.8-6.7a25.8,25.8,0,0,1-7.5-3.2c-3.5-1.9-4.8,1.1-3.8,4.6a26.3,26.3,0,0,1-.8,16.4c-1.1,2.8-6,2.9-7.3.2-3.2-6.2-3.6-13.1-4.2-20.8-.2-2.2-2.5-4-4.4-5.3s-6.1-2.5-8.6-1.9-4.1,2.2-2.9,6.5Z" transform="translate(-0.9 -0.5)" fill="#cc2b31" fill-rule="evenodd"/><path d="M229.5,58.9c-.7-4.6,2.3-6.1,5.3-3.8s7.4,4,10.3,5.1,1.8,3-.2,6.7c-3.7,6.9-7.7,38.9-5.7,58.5.3,3.4-2.1,5.7-5.4,3.3a113,113,0,0,0-11.1-7.5c-2.9-1.6-3.1-3.5-1.6-7,6.5-15.1,11.5-34.1,8.3-55.4Z" transform="translate(-0.9 -0.5)" fill="#cc2b31" fill-rule="evenodd"/><path d="M256.9,80.8c-.3,20.3-4.7,40.1-13.9,52.4-1,1.3-1.1,4.9,1.1,6.1,5.1,2.9,4.7,6.7,7.2,9.9s4.2-.5,4.4-1.5c.5-2.7-.2-8.9,1.9-14.9,1.2-3.4,3.7-9.5,8-8,6.9,2.3,4.5,13,1.5,19.6-1.6,3.3-3.9,7.3-5.8,10.7s-2.4,4.5-.4,7.2,3.1,5.9,4.5,9.2,5,2.3,6.3-.1c7.8-13.5,13.7-36.9,6.7-58.2-1-4.7,4.1-5.8,5.5-10.5.8-2.7.6-6.3-1.3-8.4-6.1-7.2-13.9-13.8-18.2-18.8-2.3-2.6-7.4-1.7-7.5,5.4Zm16.5,21.2a7,7,0,0,0-2.5-6.3c-2.2-1.9-5-3-6.9-.8s-.6,7.7.1,10.2,1.3,3.7,3.5,3.9,5.5-3.1,5.8-7Z" transform="translate(-0.9 -0.5)" fill="#cc2b31" fill-rule="evenodd"/><path d="M43.8,178.6c1.9,14.6-2.8,16.5-1.1,25s7.1,10.5,10.7,15a66.5,66.5,0,0,0,17.7,35.4c-2.8,0-4.5,3.8-7.2-.4-7.3-9-20.8-8.2-25.7-11a100,100,0,0,1,6.5,9.9c3,5,6,8.5,11,10.3s6.3-.9,10.5-2.7c2.5-1.1,5.9-3.4,9.1-1.5,15.6,13,33.3,20.2,43.4,26.4-3.3,3.2-8.8-1.7-14.8-1s-9.6,6.2-17.4,4.3c5.6,4.1,8.9,10.3,19,9.7s9.5-9.4,17.1-10.1c13.3,8.6,22.4,17.5,29,29.7l5-5.3c-10.3-16.2-19.6-20.7-27.3-26.1-4.8-7.9.8-11.3-1.2-16.9-2.6-7.1-10.4-6-13.6-17.1-2.6,5.9-3.7,8.7-2.2,14.6s12.7,8.8,12.4,16.2c-11-7.2-36.6-15.3-45.3-27.4-1.6-2.6.2-8.8,1-12.1,2.9-3,4.3-7,4.4-11.7s-2-13.2-6.5-20.9c-1.4,6.2-7.8,12.6-7.7,19s7.4,8.9,5.8,17c-.4,2.2,0,2.4-1.1,4.1-10-7.9-15.2-20-18.3-34.1.8-7.6,4.7-13.5,2.9-21.7s-10-13.8-16.2-16.6Z" transform="translate(-0.9 -0.5)" fill="#cc2b31" fill-rule="evenodd"/><path d="M277.7,178.6c-1.9,14.6,2.8,16.5,1.1,25s-7.1,10.5-10.7,15a66.5,66.5,0,0,1-17.7,35.4c2.8,0,4.5,3.8,7.2-.4,7.3-9,20.8-8.2,25.7-11a99.9,99.9,0,0,0-6.5,9.9c-3,5-6,8.5-11,10.3s-6.3-.9-10.5-2.7c-2.5-1.1-5.9-3.4-9.1-1.5-15.6,13-33.3,20.2-43.4,26.4,3.3,3.2,8.8-1.7,14.8-1s9.6,6.2,17.4,4.3c-5.6,4.1-8.9,10.3-19,9.7s-9.5-9.4-17.1-10.1c-13.3,8.6-22.4,17.5-29,29.7l-5-5.3c10.3-16.2,19.6-20.7,27.3-26.1,4.8-7.9-.8-11.3,1.2-16.9,2.6-7.1,10.4-6,13.6-17.1,2.6,5.9,3.7,8.7,2.2,14.6s-12.7,8.8-12.4,16.2c11-7.2,36.6-15.3,45.3-27.4,1.6-2.6-.2-8.8-1-12.1-2.9-3-4.3-7-4.4-11.7s2-13.2,6.5-20.9c1.4,6.2,7.8,12.6,7.7,19s-7.4,8.9-5.8,17c.4,2.2,0,2.4,1.1,4.1,10-7.9,15.2-20,18.3-34.1-.8-7.6-4.7-13.5-2.9-21.7s10-13.8,16.2-16.6Z" transform="translate(-0.9 -0.5)" fill="#cc2b31" fill-rule="evenodd"/></svg>