<svg id="Layer_1" data-name="Layer 1" xmlns="http://www.w3.org/2000/svg" viewBox="0 0 277.02 310.54"><defs><style>.cls-1{fill:#d0112b;}.cls-2{fill:#fff;}</style></defs><path class="cls-1" d="M157.5,312.77c-8.91-10.09-17.75-19.4-28.75-27.45A228.65,228.65,0,0,0,102.29,269c-18.5-9.9-34.32-21.77-46.7-36.48a119.83,119.83,0,0,1-25.79-54,133.62,133.62,0,0,1-.44-54.07c2.68-13,3.91-23.43,2.92-33.37C30.94,77.48,25.14,65.88,19,54L63.28,14.3c9.11,3.94,18.18,7.69,28,9.78,14.6,3.07,29.78,2.29,43.23-4.46,8.79-4.42,15.81-10.88,23-17.39,7.22,6.51,14.24,13,23,17.39,13.45,6.75,28.64,7.53,43.23,4.46,9.78-2.09,18.85-5.84,28-9.78L296,54c-6.15,11.87-11.95,23.47-13.29,37.07-1,9.94.24,20.39,2.92,33.37a133.62,133.62,0,0,1-.44,54.07,119.83,119.83,0,0,1-25.79,54c-12.38,14.71-28.2,26.58-46.7,36.48a229.5,229.5,0,0,0-26.46,16.29C175.25,293.37,166.41,302.68,157.5,312.77Z" transform="translate(-18.99 -2.23)"/><path class="cls-2" d="M157.5,300.27c-15.22-17.16-31.27-27.77-51.31-38.53-35.14-18.85-60-44.88-68.27-84.88C34.45,160,34,143,37.49,126.11c5.68-27.57,5.16-44.61-8.17-70.2L64.9,24C81,31,97.71,35.55,115.46,33.66c16.92-1.81,29.66-9.07,42-20.23,12.38,11.16,25.12,18.42,42,20.23C217.29,35.55,234,31,250.1,24l35.58,31.87c-13.33,25.59-13.85,42.63-8.17,70.2,3.51,16.88,3,33.91-.43,50.75-8.24,40-33.13,66-68.27,84.88C188.78,272.5,172.72,283.11,157.5,300.27Z" transform="translate(-18.99 -2.23)"/><path class="cls-1" d="M157.5,287.92c13.69-14.39,30-24.13,47.37-33.48,33-17.71,56.35-41.69,64.09-79.23a117.4,117.4,0,0,0,.47-47.45c-5.44-26.18-6.19-45.35,5.91-69.92l-26.85-24.1c-16.84,6.86-33.76,9.9-49.86,8.16A76.37,76.37,0,0,1,157.5,24.47,76.34,76.34,0,0,1,116.37,41.9c-16.1,1.74-33-1.3-49.86-8.16L39.66,57.84c12.1,24.57,11.35,43.74,5.91,69.92a117.22,117.22,0,0,0,.48,47.45c7.73,37.54,31.07,61.52,64.08,79.23C127.49,263.79,143.81,273.53,157.5,287.92Z" transform="translate(-18.99 -2.23)"/><path class="cls-2" d="M256.41,173.08A102.1,102.1,0,0,1,219.3,230c-12-18.89-28-32.58-49.06-40.74-20.78-8-41.77-13.77-61.8-24.22a181.36,181.36,0,0,1-50.21-38,102.07,102.07,0,0,1,36.29-57.5c.9,1.42,1.85,2.84,2.84,4.22,10.09,14.12,24,25.48,40.78,34.23,11.63,6.08,23.9,10.34,36.44,14.71,6.35,2.17,12.74,4.42,18.77,6.75A163.87,163.87,0,0,1,238,154.86,131.74,131.74,0,0,1,256.41,173.08Z" transform="translate(-18.99 -2.23)"/><path class="cls-1" d="M169.1,123.31c13,5.56,18.57,22,12.34,36.64s-21.93,22-34.94,16.48-18.58-22-12.39-36.6,22-22,35-16.52ZM165.78,131c-6.07-2.57-14.59,3.78-19,14.16s-3.07,20.94,3,23.54,14.59-3.79,19-14.16S171.86,133.64,165.78,131Z" transform="translate(-18.99 -2.23)"/><path class="cls-1" d="M203.88,139.52c-4,16.4-12.9,32.22-27.21,47.4a81.66,81.66,0,0,1,16,9c.12-4.3,4.5-12.38,7.61-18.81h0c9.82,4.34,8.32,8.48,6.08,16.6-1.15,4-2,8.21-.32,11.32,1.58,2.92,6,6.27,12.54,5.17-1.85-4-1.14-7.34-.51-10.49a35.4,35.4,0,0,0,.83-11.08c12.58-.24,22.56-11.28,18.26-22.64-4.42-12.62-22.8-23-33.25-26.5Zm-.79,31.74c3.51-6.27,6.55-12,11-18.89,3.94,1.58,7.84,4.1,10.17,7.26,4.81,6.55.59,17.2-7.85,17.23C211.77,176.9,207.47,174,203.09,171.26Z" transform="translate(-18.99 -2.23)"/><path class="cls-1" d="M103.55,89.27c-5.68,15.89-16.8,31.24-32.66,44.84,5.52,4.77,10.1,8.92,15.9,12.39,1-3,2.24-6.16,3.39-9,8.91,5.53,22.64,10.65,30.92.56,10-12.19-.95-25.64-11.6-32.86,2.33-2.68,3.79-3.39,6.39-5.71a99.76,99.76,0,0,1-12.34-10.22ZM93,130.88c4.85-5.84,9.94-13.13,12.26-20.43,7.89,5.09,10.93,14,4.42,20.74C105.32,135.69,98.81,134.19,93,130.88Z" transform="translate(-18.99 -2.23)"/><path class="cls-1" d="M138.81,122.56a8.34,8.34,0,0,1-7.77-.2,12.88,12.88,0,0,1,3.62-6.15C141.29,110,147.36,118.61,138.81,122.56Z" transform="translate(-18.99 -2.23)"/><path class="cls-2" d="M221.83,101.93,209,116.52a3.34,3.34,0,0,1-3.12.75c-5.12-2-10.25-4-15.34-6.07,3.59,5.64,9.51,8.79,16.05,9.62a34.29,34.29,0,0,0,19-3.19,24.14,24.14,0,0,0,2.8-1.5A58.44,58.44,0,0,1,221.83,101.93Z" transform="translate(-18.99 -2.23)"/><path class="cls-2" d="M193.71,67.54c1.69.79,3.39,1.62,5,2.56l-1.46-3.59Z" transform="translate(-18.99 -2.23)"/><path class="cls-2" d="M111.44,58.71A101.47,101.47,0,0,1,140.66,49c1.77,3.47,3.55,7.06,5.21,10.61,2.6,5.48,5,11.12,7.17,16.8l-1.18,14a3.75,3.75,0,0,0,1.38,2.65c1.85,1.06,3.71,2.13,5.56,3.15-11.36,4.14-18.89,7.18-29.7-4.85C121.1,82.41,116.37,69.67,111.44,58.71Z" transform="translate(-18.99 -2.23)"/><path class="cls-2" d="M119,87a93.19,93.19,0,0,1-16-17.19c-1-1.42-2-2.88-2.92-4.38,2.13-1.42,4.3-2.8,6.5-4.1C110.41,69.87,114,79.17,119,87Z" transform="translate(-18.99 -2.23)"/><path class="cls-2" d="M163.81,111.59c-5.21-1.93-10.25-3.94-15.22-6.19,3.78-.59,7.77-2.44,11.36-3.71,3-1.06,5.75-1.73,8.47-.39Z" transform="translate(-18.99 -2.23)"/><path class="cls-2" d="M180.06,117.31c-3.67-1.26-7.38-2.56-11-3.86l4.37-9.74c3.59,1.65,7.18,3.27,10.81,4.81Z" transform="translate(-18.99 -2.23)"/><path class="cls-2" d="M194.65,122.6q-4.78-1.84-9.35-3.43l1.62-3.48A25.68,25.68,0,0,0,194.65,122.6Z" transform="translate(-18.99 -2.23)"/><path class="cls-2" d="M258.15,134.63a103.68,103.68,0,0,1,0,29.85,146.11,146.11,0,0,0-15.82-15,166.69,166.69,0,0,0-40.18-23.9c9.86,2.49,21,.32,29.58-5C237.8,127.8,246.32,133,258.15,134.63Z" transform="translate(-18.99 -2.23)"/><path class="cls-2" d="M223,71.64a101.82,101.82,0,0,1,34.11,57.23C229.36,123.78,223.52,95.42,223,71.64Z" transform="translate(-18.99 -2.23)"/><path class="cls-2" d="M182.27,50.7a100.78,100.78,0,0,1,35.14,16.56,153.23,153.23,0,0,0,1.06,18.82A79,79,0,0,0,206.8,75.27l-5.29-13.13a3,3,0,0,0-3.31-1.62L187.44,63.6A77.89,77.89,0,0,0,182.27,50.7Z" transform="translate(-18.99 -2.23)"/><path class="cls-2" d="M157.5,47.62a102.73,102.73,0,0,1,17.87,1.58,108,108,0,0,1,6.19,14.16,89.8,89.8,0,0,0-24.69-2.52c-2.05,0-2.64,1.93-2.8,3.54-1-2.36-2.09-4.73-3.2-7.06-1.46-3.11-2.91-6.15-4.41-9.11A103.56,103.56,0,0,1,157.5,47.62Z" transform="translate(-18.99 -2.23)"/><path class="cls-2" d="M159.47,66.32l-2,22.91c15.46,9,32,15.7,48.59,22.21L219.5,96.21C204.71,75.86,184.52,66.24,159.47,66.32Z" transform="translate(-18.99 -2.23)"/><path class="cls-2" d="M108.28,204.59A32.79,32.79,0,0,0,106.94,216C110.41,213.58,110.53,208,108.28,204.59Z" transform="translate(-18.99 -2.23)"/><path class="cls-2" d="M126.74,235.23c-.95-3.9-10-7.73-13.41-8.4s-2.37,1.34-1.18,2.92a14.06,14.06,0,0,0,5.16,4.06C121.1,235.59,125.48,235.71,126.74,235.23Z" transform="translate(-18.99 -2.23)"/><path class="cls-2" d="M114.43,220c1.3,3,5.37,4.93,8.52,5.84,1.54.43,8.8,1.26,9.35.08.47-1-1.3-2.61-4-4-1.23-.63-9.19-3.59-12.43-5C113.49,215.79,113.49,217.88,114.43,220Z" transform="translate(-18.99 -2.23)"/><path class="cls-2" d="M131,215.79c-2.41-5.32-7.34-5-12.43-6.19.48,2.44,2.69,3.67,4.9,5.05A10.75,10.75,0,0,0,131,215.79Z" transform="translate(-18.99 -2.23)"/><path class="cls-2" d="M146.85,201.16,152.1,190c5.24,1.85,10.45,3.74,15.65,5.76a91.54,91.54,0,0,1,34.59,23.38c-7.53-1.34-15.54.16-23.19,0a87.84,87.84,0,0,1-12.26-1.1C162.39,210.31,154.86,204.83,146.85,201.16Z" transform="translate(-18.99 -2.23)"/><path class="cls-2" d="M131.86,196.07l5.13-11.4c3.28,1.19,6.55,2.33,9.86,3.51L141.76,199C138.53,197.89,135.18,196.9,131.86,196.07Z" transform="translate(-18.99 -2.23)"/><path class="cls-2" d="M69.12,199.62a101.58,101.58,0,0,1-12.39-64.09c9.07,9.31,12.7,10.34,11.17,25.17A151.35,151.35,0,0,0,69.12,199.62Z" transform="translate(-18.99 -2.23)"/><path class="cls-2" d="M108.32,237.84c-.95-1.26-1.34-3.24.12-3.55,2.72-.59,12.38,6,13.92,8.12C118.38,245,110.77,241.31,108.32,237.84Z" transform="translate(-18.99 -2.23)"/><path class="cls-2" d="M182.9,247.86a101.59,101.59,0,0,1-49.1.43c-3.47-.83-2.8-8.28-1.19-10.41a5.21,5.21,0,0,1,2.8-1.78c2.65-.63,5.6.4,6.24-.43s-.91-3.71-1.31-4.77a71.56,71.56,0,0,1-2.28-8.6c-.2-.87-.36-1.66-.52-2.45-1.22-5.87-3.43-9.54-6.19-11.12-5.24-3.11-11.91-1.18-13.8-9.19a34.53,34.53,0,0,1,16,1.46,85.49,85.49,0,0,1,13.13,6.39c6.31,3.59,11.6,6.9,15.46,13.45A129.66,129.66,0,0,0,174.1,238C176.83,241.35,179.74,244.62,182.9,247.86Z" transform="translate(-18.99 -2.23)"/><path class="cls-2" d="M213.7,234.05a100.3,100.3,0,0,1-24.73,12,145.72,145.72,0,0,1-10.61-11.55,124.21,124.21,0,0,1-7.69-10.42c2.76.28,5.56.48,8.37.51a138.36,138.36,0,0,0,14.07-.39C203.76,223.44,208.22,225.38,213.7,234.05Z" transform="translate(-18.99 -2.23)"/><path class="cls-2" d="M106.94,172.09a247,247,0,0,0,24.85,10.69l-5,11.12a.51.51,0,0,0-.24,0,46.82,46.82,0,0,0-9.66.16c-4.3.51-6.43,0-5.09,5.92a15,15,0,0,1-6.9-9.71C103.78,185.27,104.53,179.07,106.94,172.09Z" transform="translate(-18.99 -2.23)"/><path class="cls-2" d="M102.13,234.6c-26.58-17.35-30.29-35.69-28.44-63.1A188.74,188.74,0,0,1,76,152.61a202.59,202.59,0,0,0,26,16.88c-2.92,8.28-3.87,15.74-2.48,21.93a20.73,20.73,0,0,0,4.37,9,36.17,36.17,0,0,0-2.36,14.16,55.5,55.5,0,0,0,3,15A8.5,8.5,0,0,0,102.13,234.6Z" transform="translate(-18.99 -2.23)"/></svg>