<svg id="Layer_1" data-name="Layer 1" xmlns="http://www.w3.org/2000/svg" viewBox="0 0 224.8 274.6"><defs><style>.cls-1{fill:#fefefe;}.cls-2{fill:#01016a;}</style></defs><title>dalvik</title><circle class="cls-1" cx="111.9" cy="110.7" r="107.8"/><path class="cls-2" d="M505.6,363.1h.4a110.1,110.1,0,0,1,70.6,30.5,110.2,110.2,0,0,1,28,43.2,108.4,108.4,0,0,1,5.3,21.9,110.4,110.4,0,0,1,.7,23.7,110.8,110.8,0,0,1-85.9,99,106.5,106.5,0,0,1-21.3,2.7A110.6,110.6,0,0,1,391.3,492a111.9,111.9,0,0,1-1.5-15.4,110.7,110.7,0,0,1,88-111.2,105.9,105.9,0,0,1,17.5-2.2h10.4ZM607.6,473.7A107.2,107.2,0,1,0,498.4,580.9,107.4,107.4,0,0,0,607.6,473.7Z" transform="translate(-388.1 -363.1)"/><path class="cls-2" d="M612.9,635a3.2,3.2,0,0,1-3.3,2H598.9a2.3,2.3,0,0,1-1.9-.9l-5.7-7c-.9-1-1.8-2-2.8-2.9a1.5,1.5,0,0,0-1.7-.6,1.6,1.6,0,0,0-1,1.5,15.1,15.1,0,0,0,0,2.6,2.6,2.6,0,0,0,1.3,2.1l.8.6a2.3,2.3,0,0,1-.3,3.9,10.2,10.2,0,0,1-3.3.9,45.1,45.1,0,0,1-11.5-.1,5,5,0,0,1-2-.7,2.3,2.3,0,0,1-.3-3.7l.2-.2c1.9-1,2.2-2.8,2.3-4.6a92.5,92.5,0,0,0-.1-17.4,4.4,4.4,0,0,0-2.2-3.8,2.5,2.5,0,0,1,.3-4.4,11.1,11.1,0,0,1,3.3-1,31.7,31.7,0,0,1,10.7.1l1.7.6a2.7,2.7,0,0,1,.5,4.1c-2.2,1.6-2.1,4-1.9,6.4s.8,1.2,1.6.7l.4-.3,3.6-4.5a2,2,0,0,0,.1-2.5,2.6,2.6,0,0,1,1.7-4.1,22.9,22.9,0,0,1,5.2-.8c2.4,0,4.9.2,7.3.4l1,.3a2.6,2.6,0,0,1,1.7,3,2.5,2.5,0,0,1-2.5,2.2h-2a4,4,0,0,0-2.8,1.1l-3.8,3.6-.5.7a2.4,2.4,0,0,0-.1,3.2c.8,1.1,1.7,2.1,2.6,3.2l9.5,10.8a6.7,6.7,0,0,0,2,1.4,4.4,4.4,0,0,1,2.6,2.4Z" transform="translate(-388.1 -363.1)"/><path class="cls-2" d="M388.1,633.6a3.1,3.1,0,0,1,2.1-1.5,2,2,0,0,0,1.7-1.8c.2-2.2.5-4.4.5-6.7.1-4.6.2-9.3.2-13.9,0-.5,0-1-.1-1.4a2.2,2.2,0,0,0-1.5-2l-1.2-.6a2.2,2.2,0,0,1-.1-3.6,5.2,5.2,0,0,1,3.3-1h4.7l12.9-.2a21.7,21.7,0,0,1,8.3,1.4,14.7,14.7,0,0,1,8.8,9.5,21.6,21.6,0,0,1-.6,15.7c-2.2,5-6.1,7.9-11.3,9.2a27.7,27.7,0,0,1-7.7.5,125.8,125.8,0,0,0-15.2,0h-1.5a3.8,3.8,0,0,1-3.2-2.1ZM404.8,619c0,1.4,0,2.9,0,4.3s0,4,0,6a2.2,2.2,0,0,0,2.3,2.5,8.2,8.2,0,0,0,2.5-.1c2.8-.6,4.2-2.6,5-5.1a27.5,27.5,0,0,0-.8-15.6,6.7,6.7,0,0,0-6.6-4.3c-1.9,0-2.4.5-2.4,2.4S404.8,615.7,404.8,619Z" transform="translate(-388.1 -363.1)"/><path class="cls-2" d="M522.8,637.8h0c-2-.4-3-1.8-3.7-3.6l-10.8-23.7-.8-1.6a3.3,3.3,0,0,0-2.3-1.6,2.2,2.2,0,0,1-1.2-3.8,6.7,6.7,0,0,1,3.6-1.8,31.6,31.6,0,0,1,9.4-.5,36.6,36.6,0,0,1,4.7.8,4.1,4.1,0,0,1,1.6.8,1.9,1.9,0,0,1,.2,3l-.8.7c-1.1.8-1.3,1.2-.7,2.5l2.7,6.2c.3.7.6,1.5,1,2.1s1.8,1.4,2.7.2a7.4,7.4,0,0,0,1-1.6l3.3-7.4c.6-1.3.3-1.9-.9-2.5s-1.4-.9-1.4-1.9a2.1,2.1,0,0,1,1.5-2,21.8,21.8,0,0,1,4.2-.9,24.7,24.7,0,0,1,7.6.3l1,.3a2.3,2.3,0,0,1,1.6,2.5,1.9,1.9,0,0,1-2,1.9,4.2,4.2,0,0,0-3.9,2.8l-9.3,18.7-3,6.2-.2.3c-.9,1.7-1.8,3.2-3.9,3.6Z" transform="translate(-388.1 -363.1)"/><path class="cls-2" d="M501.2,637.8l-4-.6-4.8-.2H477.7l-1.8-.2a2,2,0,0,1-1.7-1.8c-.1-.9.2-1.4,1.1-1.9l1.9-1.1a3.2,3.2,0,0,0,1.1-2.8c0-3.6,0-7.3,0-10.9s-.1-5.4-.2-8.1a10.5,10.5,0,0,0-.1-1.4,2,2,0,0,0-1.3-1.6l-2-.9a1.9,1.9,0,0,1-.5-3.3,7.2,7.2,0,0,1,4-1.7,39.6,39.6,0,0,1,13.2.1,5.8,5.8,0,0,1,2.2.9,2.1,2.1,0,0,1-.3,3.7l-.4.2c-1.9.5-2.4,1.9-2.4,3.6,0,3.3-.1,6.5,0,9.8s0,5.5.2,8.2,1.1,3.2,3.4,3.4a11.8,11.8,0,0,0,3.3-.3,5.8,5.8,0,0,0,4.2-4.2l.3-1a1.8,1.8,0,0,1,2.8-1.3,3.7,3.7,0,0,1,2,3.1,9.4,9.4,0,0,1-1,5.6,22.7,22.7,0,0,1-1.9,3.2,7.4,7.4,0,0,1-1.6,1.3Z" transform="translate(-388.1 -363.1)"/><path class="cls-2" d="M461.3,637.7l-7.6-.7a3.9,3.9,0,0,1-2-1,2,2,0,0,1,.6-3.5l.7-.3a1.3,1.3,0,0,0,1-1.2,1.6,1.6,0,0,0-.8-1.7,4.4,4.4,0,0,0-1.8-.5h-9a2.3,2.3,0,0,0-2,2.6,1.1,1.1,0,0,0,.5.7l1.3.5a2,2,0,0,1,.7,3.4,5.2,5.2,0,0,1-3.1,1.3,30.6,30.6,0,0,1-9.2-.1c-1.8-.3-2.5-1.1-2.5-2.7a1.6,1.6,0,0,1,.9-1.5l.5-.3a6.5,6.5,0,0,0,4.2-3.9l7.2-16.2a12.4,12.4,0,0,0,1.1-6c-.4-5.5,5.5-7,8.9-5.3a12,12,0,0,1,4.6,4.4,98.5,98.5,0,0,1,6.9,12.7l5.1,10.9.7,1.3a2.5,2.5,0,0,0,2,1.4c.9.1,1.6.4,1.8,1.4a2.4,2.4,0,0,1-.9,2.6,7.2,7.2,0,0,1-3.9,1.3Zm-13.8-15.4h2.8c1-.1,1.3-.4.9-1.3s-1.8-3.5-2.9-5.2-1.8-1.1-2.4.2-1.4,3.4-2,5.1-.1,1.2.8,1.2Z" transform="translate(-388.1 -363.1)"/><path class="cls-2" d="M556.2,637.7l-5.5-.7a5.3,5.3,0,0,1-1.9-.8,2.1,2.1,0,0,1-.3-3.4l.6-.4a3.7,3.7,0,0,0,2-3.5c.1-2.2.3-4.5.3-6.7,0-3.9-.2-7.8-.3-11.6a4,4,0,0,0-2.2-3.6l-.6-.5c-1.6-1.3-1.4-3.1.5-3.8a27.7,27.7,0,0,1,5.1-1.3,28.7,28.7,0,0,1,10.7.2,5.8,5.8,0,0,1,2,.8,3.4,3.4,0,0,1,1.2,1.5,1.7,1.7,0,0,1-.9,2.3h-.1c-2.3.8-2.8,2.7-2.9,4.8a155.8,155.8,0,0,0,.1,17.2,3.5,3.5,0,0,0,2.3,3.4,2.3,2.3,0,0,1,.1,4.4,20.1,20.1,0,0,1-4,1.1C560.4,637.4,558.5,637.5,556.2,637.7Z" transform="translate(-388.1 -363.1)"/><path class="cls-2" d="M554.2,598.4l-1.8-.4a1.5,1.5,0,0,1-1.1-1.4c0-.7.5-1,1-1.3l2.1-1a1,1,0,0,0,.6-1.4.9.9,0,0,1,.7-1.2,8.1,8.1,0,0,1,3.1-.5,16.2,16.2,0,0,1,4.3,1.4c1.4.7,1.4,1.8.1,2.7A16.5,16.5,0,0,1,554.2,598.4Z" transform="translate(-388.1 -363.1)"/><path class="cls-1" d="M404.8,619q0-4.9,0-9.9c0-1.9.5-2.4,2.4-2.4a6.7,6.7,0,0,1,6.6,4.3,27.5,27.5,0,0,1,.8,15.6c-.8,2.5-2.2,4.5-5,5.1a8.2,8.2,0,0,1-2.5.1,2.2,2.2,0,0,1-2.3-2.5c0-2,0-4,0-6S404.8,620.5,404.8,619Z" transform="translate(-388.1 -363.1)"/><path class="cls-1" d="M447.5,622.3h-2.8c-.9,0-1.1-.4-.8-1.2s1.3-3.5,2-5.1,1.6-1.4,2.4-.2,2,3.4,2.9,5.2.2,1.3-.9,1.3h-2.8Z" transform="translate(-388.1 -363.1)"/><path class="cls-2" d="M594.7,473.7a94.3,94.3,0,1,1-92.4-94.3A94.4,94.4,0,0,1,594.7,473.7Zm-72.9-76.3L581,432v-.4a91.4,91.4,0,0,0-23.2-28.3l-1.2-.6-26.7-9-5.6-1.9,1-5.5a91.6,91.6,0,0,0-49.7,0l1,5.5-.6.2-31.8,10.6-1.1.6a90.9,90.9,0,0,0-21.2,24.8l-2.2,3.8h.1l59.1-34.5,4.3,5.3L418,471.8h31.1a1,1,0,0,0,.9-.6l36.3-61.7,1.8-3,7.9,2.8-11.9,62.5h32.3l-11.9-62.5,7.9-2.8.3.5,37.8,64.2a1.1,1.1,0,0,0,1.1.6h31l-65.2-69.1ZM498.7,564.6l-.6-1.3a9.6,9.6,0,0,1-1.3-5q0-37.4,0-74.9c0-2.2.3-4.1,1.9-5.7h0c.1-.3.2-.6.2-.8s-.5-.3-.7-.3h-9.6a1,1,0,0,0-1,.7l-8.7,17.9c-.1.3-.5.5-.7.7a3.4,3.4,0,0,1-.6-.7l-7.6-17.7a1.1,1.1,0,0,0-1.2-.8h-10c-.3,0-.7.1-.8.3a1.1,1.1,0,0,0,.2.9,3.7,3.7,0,0,1,.8,2.6q0,33.9,0,67.8a3.8,3.8,0,0,1-.3,1.7,19.9,19.9,0,0,1-1.7,2.5c-.5.7-.5,1,.2,1.3a87.8,87.8,0,0,0,13.7,6,3,3,0,0,0,1,0,2.9,2.9,0,0,0-.2-1.1,8.5,8.5,0,0,1-1.6-5q0-24.5,0-49a2.2,2.2,0,0,1,0-.6c0-.2.2-.4.3-.4l.5.2a1.7,1.7,0,0,1,.3.5l6,10.9c.1.3.5.7.7.6a1.3,1.3,0,0,0,.7-.7l6.2-11.2c.1-.3.5-.4.8-.6s.4.6.4.9q0,25.8,0,51.5a4.3,4.3,0,0,1-1,2.8l-2.3,3a5.6,5.6,0,0,0-.5,1.2A83.6,83.6,0,0,0,498.7,564.6Zm-58.4-62.2q0,11.1,0,22.2a7.4,7.4,0,0,1-.3,2,1.4,1.4,0,0,1-2.1,1,8.9,8.9,0,0,1-2.4-1.5,32.6,32.6,0,0,1-7.2-9.9,6.3,6.3,0,0,1-.7-2.5c0-9.9,0-19.9,0-29.8,0-2.4.3-4.5,2-6.3.2-.2.2-.5.2-.8H414.9c-.6,0-.7.3-.4.7l1,1.3a2.6,2.6,0,0,1,.6,1.9c0,6.7,0,13.4,0,20.1a32.3,32.3,0,0,0,3.5,14.8A89.5,89.5,0,0,0,441.5,543a15.4,15.4,0,0,0,6.1,3.3c2.5.7,4.3-.3,4.9-2.6a6,6,0,0,0,.2-1.6q0-29.6,0-59.1a8.8,8.8,0,0,1,1.4-5.5c.5-.7.4-.9-.5-.9H439.8c-1,0-1.1.1-.6,1a6.4,6.4,0,0,1,1,3.8C440.2,488.4,440.2,495.4,440.2,502.4ZM548,551.1l.7-.4c3.3-2.4,6.7-4.6,9.8-7.2a89.6,89.6,0,0,0,23.9-30.6,7,7,0,0,0-2.1-8.6,18.2,18.2,0,0,0-3.7-1.9c-2.4-1-5-1.1-7.6-1.6a16.1,16.1,0,0,1-6.6-2.6,6.4,6.4,0,0,1-2.6-6.9,6,6,0,0,1,5-5.1,18,18,0,0,1,9.8.8,43.7,43.7,0,0,1,8.9,4.5,1.1,1.1,0,0,0,1,.1,1.1,1.1,0,0,0,.3-.9c-.9-3.9-1.8-7.9-2.7-11.8-.2-.8-.6-.9-1.4-.6a11.1,11.1,0,0,1-2.9.9,18.3,18.3,0,0,1-6.5-.6,50.5,50.5,0,0,0-11-1.7,12.7,12.7,0,0,0-12.4,9.4,27.3,27.3,0,0,0,.8,15.4,10.7,10.7,0,0,0,7.2,7.3l6.4,2a46.2,46.2,0,0,1,5.2,1.9,4.7,4.7,0,0,1,2.7,4.8,6.8,6.8,0,0,1-2.7,5.2,19.8,19.8,0,0,1-18.4,3.5c-1-.3-1.3-.1-1.3.9q0,11.2,0,22.5A9.1,9.1,0,0,0,548,551.1Zm-25.7-74.5H505c-1.7,0-1.8.1-1.2,1.7a9,9,0,0,1,.8,2.8q.1,38.6,0,77.1a5.6,5.6,0,0,1-.6,2.3c-.5,1-1.1,2-1.7,3s-.1,1.1.6,1.1l4.7-.3,9.2-1.2a.8.8,0,0,0,.6-.5.9.9,0,0,0-.3-.7l-1.5-1.2a3.1,3.1,0,0,1-1.3-2.7q0-14.1,0-28.2a12.7,12.7,0,0,1,.7-4.7,2.7,2.7,0,0,1,2-1.9,8.7,8.7,0,0,1,2.6-.1,17.6,17.6,0,0,1,5.5,2.1c.9.5,1.3.2,1.3-.8q0-5.7,0-11.4c0-1.1-.4-1.3-1.4-.8a23,23,0,0,1-5.7,2.6,3.4,3.4,0,0,1-4.3-3.4q0-12.6,0-25.2c0-1,.1-1.1,1.1-1.1h18.2l1.3.2,5.4,2c1,.4,1.6-.1,1.5-1.2l-.6-7.8c-.1-1.4-.6-1.8-2-1.8Z" transform="translate(-388.1 -363.1)"/></svg>