<svg xmlns="http://www.w3.org/2000/svg" viewBox="0 0 241.5 291.1"><title>vikingur</title><path d="M231.8,34.6l-.8-2.7L194.4,48.3C180.7,19.8,152.9.2,121,.2S61.3,19.8,47.6,48.3L11,31.9l-.8,2.7a231.6,231.6,0,0,0-9.9,69c.6,42.4,12.7,80.7,36,114,20.4,29,49.3,54.4,83.6,73.2l1.1.6,1.1-.6c34.3-18.9,63.2-44.2,83.6-73.2,23.3-33.3,35.5-71.6,36-114a231.7,231.7,0,0,0-9.9-69" transform="translate(-0.3 -0.2)" fill="#1a1919"/><path d="M44.1,120.6a153.6,153.6,0,0,0,19.7,59.1V152.3a89.4,89.4,0,0,1-19.7-31.7" transform="translate(-0.3 -0.2)" fill="#da322a"/><path d="M178.2,152.3v27.4a153.6,153.6,0,0,0,19.7-59.1,89.4,89.4,0,0,1-19.7,31.7" transform="translate(-0.3 -0.2)" fill="#da322a"/><path d="M132.4,176.3v53.9a204.3,204.3,0,0,0,22.9-20.4V169.1a77.7,77.7,0,0,1-22.9,7.2" transform="translate(-0.3 -0.2)" fill="#da322a"/><path d="M86.7,169.1v40.7a204.4,204.4,0,0,0,22.9,20.4V176.3a77.7,77.7,0,0,1-22.9-7.2" transform="translate(-0.3 -0.2)" fill="#da322a"/><path d="M40.2,214.4C17.5,182,5.7,144.7,5.1,103.4q0-1.4,0-2.8A226.3,226.3,0,0,1,14,38.8L45.3,52.9c-4.5,9.9-7,21.9-7.4,35.7q-.1,3.6-.1,7.1c0,28.4,5.3,53.2,16.1,75.7,13.4,27.9,35,51.5,65.9,72.4l1.3.9,1.3-.9c30.9-20.9,52.5-44.5,65.9-72.4,10.8-22.4,16.1-47.3,16.1-75.7q0-3.5-.1-7.1c-.4-13.8-2.9-25.8-7.4-35.7L228,38.8a226.3,226.3,0,0,1,8.9,61.8c0,.9,0,1.9,0,2.8-.6,41.3-12.4,78.6-35.1,111-19.7,28.1-47.7,52.7-80.8,71.1-33.2-18.4-61.1-43-80.8-71.1" transform="translate(-0.3 -0.2)" fill="#fffffe"/><path d="M78.4,132.2A28.7,28.7,0,0,1,69,112.8c-.7-8.6,2.1-18,7-24.1-4.9-6.1-7.7-15.5-7-24.1a28.7,28.7,0,0,1,9.3-19.4c-3.8-2.7-7.3-5.7-10.7-8.7l-4.3-3.7A86.4,86.4,0,0,0,43.3,88.7a86.4,86.4,0,0,0,20.1,55.8l4.3-3.7c3.4-2.9,6.9-6,10.7-8.7" transform="translate(-0.3 -0.2)" fill="#d4682c"/><path d="M168.2,112.3c.6-7.7-2-16-6.5-21.1H80.5v-.2c-4.6,5-7.3,13.5-6.7,21.3a23.5,23.5,0,0,0,9,17c6.6-3.8,14-6,22.4-3.9s12.9,6.2,15.9,12.2c2.9-6,8.4-10.4,15.9-12.2s15.7.1,22.4,3.9a23.5,23.5,0,0,0,9-17" transform="translate(-0.3 -0.2)" fill="#d4682c"/><path d="M104.1,46.9c9.2-2.3,14.5-8.9,14.5-18.2V5.4C98.5,6.1,80.2,15,66.8,29.1l4,3.4c10,8.7,20.3,17.6,33.3,14.4" transform="translate(-0.3 -0.2)" fill="#d4682c"/><path d="M163.6,45.2a28.7,28.7,0,0,1,9.3,19.4c.7,8.6-2.1,18-7,24.1,4.9,6.1,7.7,15.5,7,24.1a28.7,28.7,0,0,1-9.3,19.4c3.8,2.7,7.3,5.7,10.7,8.7l4.3,3.7a86.4,86.4,0,0,0,20.1-55.8,86.4,86.4,0,0,0-20.1-55.8l-4.3,3.7c-3.4,2.9-6.9,6-10.7,8.7" transform="translate(-0.3 -0.2)" fill="#d4682c"/><path d="M137.9,46.9c13,3.2,23.3-5.7,33.3-14.4l4-3.4C161.8,15,143.5,6.1,123.4,5.4V28.7c0,9.3,5.3,15.9,14.5,18.2" transform="translate(-0.3 -0.2)" fill="#d4682c"/><path d="M73.8,65c-.6,7.8,2,16.2,6.7,21.3v-.2h81.1c4.5-5.1,7.2-13.4,6.5-21.1a23.5,23.5,0,0,0-9-17c-6.6,3.8-14,6-22.4,3.9S123.9,45.8,121,39.7c-2.9,6-8.4,10.4-15.9,12.2S89.4,51.9,82.8,48a23.5,23.5,0,0,0-9,17" transform="translate(-0.3 -0.2)" fill="#d4682c"/><path d="M104.1,130.4c-13-3.2-23.3,5.7-33.3,14.4l-4,3.4c13.5,14.1,31.7,23,51.8,23.7V148.6c0-9.3-5.3-15.9-14.5-18.2" transform="translate(-0.3 -0.2)" fill="#d4682c"/><path d="M137.9,130.4c-9.2,2.3-14.5,8.9-14.5,18.2v23.3c20.1-.7,38.4-9.6,51.8-23.7l-4-3.4c-10-8.7-20.3-17.6-33.3-14.4" transform="translate(-0.3 -0.2)" fill="#d4682c"/></svg>